<svg height="150pt" viewBox="0 0 512 512" width="250pt" xmlns="http://www.w3.org/2000/svg"><path d="m350.390625 237.539062-12.8125-.980468c-1.707031-.128906-3.167969-1.296875-3.648437-2.957032-1.578126-5.5-3.730469-10.773437-6.390626-15.730468-.808593-1.519532-.578124-3.382813.5625-4.671875l8.628907-9.738281c3.460937-3.910157 3.28125-9.839844-.410157-13.53125l-13.21875-13.210938c-3.652343-3.648438-9.492187-3.878906-13.410156-.507812l-9.75 8.359374c-1.300781 1.121094-3.171875 1.320313-4.671875.488282-4.929687-2.730469-10.167969-4.957032-15.648437-6.628906-1.640625-.5-2.800782-1.980469-2.902344-3.691407l-.789062-12.96875c-.320313-5.21875-4.640626-9.28125-9.859376-9.28125h-18.679687c-5.171875 0-9.460937 3.980469-9.851563 9.121094l-.980468 12.8125c-.128906 1.707031-1.296875 3.167969-2.949219 3.636719-5.929687 1.710937-11.589844 4.0625-16.878906 7-1.511719.832031-3.371094.632812-4.671875-.488282l-9.75-8.359374c-3.917969-3.371094-9.757813-3.140626-13.410156.507812l-13.21875 13.210938c-3.691407 3.691406-3.871094 9.621093-.410157 13.53125l8.628907 9.738281c1.140624 1.289062 1.371093 3.152343.5625 4.671875-2.660157 4.957031-4.8125 10.230468-6.390626 15.730468-.480468 1.660157-1.941406 2.828126-3.648437 2.957032l-12.8125.980468c-5.140625.390626-9.121094 4.679688-9.121094 9.851563v18.679687c0 5.21875 4.0625 9.539063 9.28125 9.859376l12.96875.789062c1.710938.101562 3.191407 1.261719 3.691407 2.902344 1.671874 5.480468 3.898437 10.71875 6.628906 15.648437.832031 1.5.632812 3.371094-.488282 4.671875l-8.359374 9.75c-3.371094 3.917969-3.140626 9.757813.507812 13.410156l13.210938 13.21875c3.691406 3.691407 9.621093 3.871094 13.53125.410157l9.738281-8.628907c1.289062-1.140624 3.152343-1.371093 4.671875-.5625 4.957031 2.660157 10.230468 4.8125 15.730468 6.390626 1.660157.480468 2.828126 1.941406 2.957032 3.648437l.980468 12.8125c.390626 5.140625 4.679688 9.121094 9.851563 9.121094h18.679687c5.21875 0 9.539063-4.0625 9.859376-9.28125l.789062-12.96875c.101562-1.710938 1.25-3.191407 2.890625-3.691407 5.070313-1.539062 9.929687-3.570312 14.53125-6.03125 1.507813-.808593 3.371094-.570312 4.660156.5625l9.738281 8.628907c3.910157 3.460937 9.839844 3.28125 13.53125-.410157l13.210938-13.21875c3.648438-3.652343 3.878906-9.492187.507812-13.410156l-8.359374-9.75c-1.121094-1.300781-1.320313-3.171875-.488282-4.671875 2.730469-4.929687 4.957032-10.167969 6.628906-15.648437.5-1.640625 1.980469-2.800782 3.691407-2.902344l12.96875-.789062c5.21875-.320313 9.28125-4.640626 9.28125-9.859376v-18.679687c0-5.171875-3.980469-9.460937-9.121094-9.851563zm-48.140625 20.871094c-1.191406 23.53125-20.308594 42.648438-43.839844 43.839844-27.480468 1.398438-50.058594-21.179688-48.660156-48.660156 1.191406-23.53125 20.308594-42.648438 43.839844-43.839844 27.480468-1.398438 50.058594 21.179688 48.660156 48.660156zm0 0" fill="#a7c7d3"/><path d="m155.351562 81.378906c0 20.542969-8.378906 39.121094-21.917968 52.511719v.007813c-13.339844 13.203124-31.699219 21.363281-51.960938 21.363281-20.179687 0-38.480468-8.101563-51.808594-21.222657-13.621093-13.398437-22.070312-32.039062-22.070312-52.660156 0-40.800781 33.078125-73.878906 73.878906-73.878906 40.800782 0 73.878906 33.078125 73.878906 73.878906zm0 0" fill="#ffb8d5"/><path d="m81.472656 7.5c-4.789062 0-9.464844.472656-14 1.34375 34.105469 6.542969 59.878906 36.523438 59.878906 72.535156 0 20.542969-8.378906 39.121094-21.917968 52.511719v.007813c-10.1875 10.082031-23.308594 17.207031-37.960938 20.019531 4.535156.871093 9.210938 1.34375 14 1.34375 20.261719 0 38.621094-8.160157 51.960938-21.363281v-.007813c13.539062-13.390625 21.917968-31.96875 21.917968-52.511719 0-40.800781-33.078124-73.878906-73.878906-73.878906zm0 0" fill="#f49dc4"/><path d="m133.433594 133.890625v.011719c-13.339844 13.199218-31.699219 21.359375-51.960938 21.359375-20.179687 0-38.480468-8.101563-51.808594-21.222657.96875-4.207031 3.339844-8.078124 6.769532-11.21875 4.828125-4.4375 11.289062-6.6875 17.847656-6.6875h54.5625c6.570312 0 13.019531 2.25 17.859375 6.6875 3.378906 3.109376 5.738281 6.910157 6.730469 11.070313zm0 0" fill="#ff84a7"/><path d="m133.433594 133.890625c-.992188-4.160156-3.351563-7.960937-6.730469-11.070313-2.570313-2.359374-5.601563-4.078124-8.859375-5.191406-3.378906 5.984375-7.554688 11.460938-12.410156 16.261719v.011719c-10.1875 10.078125-23.308594 17.207031-37.960938 20.019531 2.257813.433594 4.550782.765625 6.878906.992187.179688.019532.367188.023438.550782.042969.980468.085938 1.960937.164063 2.953125.214844 1.199219.058594 2.402343.089844 3.617187.089844 10.128906 0 19.785156-2.039063 28.574219-5.730469 8.792969-3.6875 16.714844-9.027344 23.386719-15.628906zm0 0" fill="#ef6085"/><path d="m94.882812 83.644531-8.320312 5.074219c-3.070312 1.871094-6.925781 1.871094-9.996094 0l-8.320312-5.074219c-2.867188-1.746093-4.617188-4.863281-4.617188-8.226562v-22.28125c0-6.125 4.960938-11.09375 11.078125-11.09375h13.714844c6.117187 0 11.078125 4.96875 11.078125 11.09375v22.28125c0 3.363281-1.75 6.480469-4.617188 8.226562zm0 0" fill="#fff"/><path d="m504.574219 430.621094c0 20.539062-8.378907 39.117187-21.917969 52.507812v.011719c-13.339844 13.199219-31.703125 21.359375-51.960938 21.359375-20.179687 0-38.480468-8.101562-51.808593-21.21875-13.621094-13.402344-22.070313-32.042969-22.070313-52.660156 0-40.800782 33.078125-73.882813 73.878906-73.882813 40.800782 0 73.878907 33.082031 73.878907 73.882813zm0 0" fill="#ffb8d5"/><path d="m430.695312 356.738281c-4.789062 0-9.464843.472657-14 1.34375 34.101563 6.542969 59.878907 36.523438 59.878907 72.535157 0 20.542968-8.378907 39.121093-21.921875 52.511718v.011719c-10.183594 10.078125-23.304688 17.207031-37.960938 20.015625 4.535156.871094 9.214844 1.34375 14.003906 1.34375 20.257813 0 38.617188-8.160156 51.957032-21.359375v-.011719c13.542968-13.390625 21.921875-31.96875 21.921875-52.511718 0-40.796876-33.082031-73.878907-73.878907-73.878907zm0 0" fill="#f49dc4"/><path d="m482.652344 483.128906v.011719c-13.339844 13.199219-31.699219 21.359375-51.957032 21.359375-20.179687 0-38.480468-8.101562-51.8125-21.21875.972657-4.210938 3.339844-8.082031 6.769532-11.222656 4.832031-4.4375 11.292968-6.6875 17.851562-6.6875h54.558594c6.570312 0 13.023438 2.25 17.863281 6.6875 3.378907 3.113281 5.738281 6.910156 6.726563 11.070312zm0 0" fill="#ff84a7"/><path d="m482.652344 483.128906c-.988282-4.160156-3.347656-7.957031-6.726563-11.070312-2.574219-2.359375-5.605469-4.078125-8.859375-5.191406-3.382812 5.984374-7.558594 11.460937-12.414062 16.261718v.011719c-10.183594 10.082031-23.304688 17.207031-37.960938 20.019531h.003906c2.257813.433594 4.550782.765625 6.875.992188.183594.019531.367188.027344.550782.042968.980468.085938 1.964844.164063 2.953125.214844 1.199219.058594 2.40625.089844 3.621093.089844 10.128907 0 19.785157-2.039062 28.574219-5.730469 8.789063-3.6875 16.714844-9.027343 23.382813-15.628906zm0 0" fill="#ef6085"/><path d="m444.105469 432.882812-8.320313 5.074219c-3.070312 1.871094-6.925781 1.871094-10 0l-8.316406-5.074219c-2.867188-1.746093-4.617188-4.863281-4.617188-8.226562v-22.277344c0-6.128906 4.960938-11.097656 11.078126-11.097656h13.714843c6.117188 0 11.078125 4.96875 11.078125 11.097656v22.277344c0 3.363281-1.75 6.480469-4.617187 8.226562zm0 0" fill="#fff"/><path d="m504.5 81.378906c0 20.542969-8.378906 39.121094-21.921875 52.511719v.007813c-13.339844 13.203124-31.699219 21.363281-51.957031 21.363281-20.179688 0-38.480469-8.101563-51.8125-21.222657-13.617188-13.398437-22.070313-32.039062-22.070313-52.660156 0-40.800781 33.082031-73.878906 73.882813-73.878906 40.800781 0 73.878906 33.078125 73.878906 73.878906zm0 0" fill="#83d9ff"/><path d="m430.621094 7.5c-5.140625 0-10.15625.527344-15 1.527344 33.605468 6.933594 58.878906 36.691406 58.878906 72.351562 0 20.542969-8.378906 39.121094-21.921875 52.511719v.007813c-9.953125 9.851562-22.707031 16.890624-36.953125 19.832031 4.84375 1 9.855469 1.53125 14.996094 1.53125 20.257812 0 38.617187-8.160157 51.957031-21.363281v-.007813c13.542969-13.390625 21.921875-31.96875 21.921875-52.511719 0-40.800781-33.078125-73.878906-73.878906-73.878906zm0 0" fill="#5fc9ed"/><path d="m482.578125 133.890625v.007813c-13.339844 13.203124-31.699219 21.363281-51.957031 21.363281-20.179688 0-38.480469-8.101563-51.8125-21.222657.972656-4.210937 3.339844-8.078124 6.769531-11.21875 4.832031-4.441406 11.292969-6.691406 17.851563-6.691406h54.558593c6.570313 0 13.023438 2.25 17.863281 6.691406 3.378907 3.109376 5.738282 6.910157 6.726563 11.070313zm0 0" fill="#5186ff"/><path d="m475.847656 122.820312c-3.011718-2.761718-6.648437-4.675781-10.546875-5.726562-3.433593 6.195312-7.722656 11.851562-12.722656 16.796875v.007813c-9.953125 9.851562-22.707031 16.890624-36.957031 19.832031 2.394531.492187 4.828125.871093 7.296875 1.128906.03125 0 .066406.007813.097656.011719 1.117187.113281 2.242187.195312 3.371094.257812.140625.007813.277343.023438.417969.03125 1.261718.066406 2.535156.097656 3.8125.097656 20.261718 0 38.621093-8.160156 51.960937-21.359374v-.007813c-.988281-4.160156-3.347656-7.960937-6.730469-11.070313zm0 0" fill="#476eea"/><path d="m444.03125 83.644531-8.320312 5.074219c-3.070313 1.871094-6.929688 1.871094-10 0l-8.320313-5.074219c-2.863281-1.746093-4.613281-4.863281-4.613281-8.222656v-22.285156c0-6.125 4.957031-11.09375 11.078125-11.09375h13.710937c6.121094 0 11.082032 4.96875 11.082032 11.09375v22.28125c0 3.363281-1.75 6.480469-4.617188 8.226562zm0 0" fill="#fff"/><path d="m155.261719 430.621094c0 20.539062-8.382813 39.117187-21.921875 52.507812v.011719c-13.339844 13.199219-31.699219 21.359375-51.960938 21.359375-20.179687 0-38.480468-8.101562-51.808594-21.21875-13.621093-13.402344-22.070312-32.042969-22.070312-52.660156 0-40.800782 33.078125-73.882813 73.878906-73.882813 40.800782 0 73.882813 33.082031 73.882813 73.882813zm0 0" fill="#83d9ff"/><path d="m81.378906 356.738281c-5.140625 0-10.15625.53125-15 1.527344 33.609375 6.933594 58.882813 36.695313 58.882813 72.355469 0 20.539062-8.382813 39.117187-21.921875 52.507812v.011719c-9.953125 9.847656-22.707032 16.886719-36.957032 19.828125 4.84375 1 9.859376 1.53125 14.996094 1.53125 20.261719 0 38.621094-8.160156 51.960938-21.359375v-.011719c13.539062-13.390625 21.921875-31.96875 21.921875-52.507812 0-40.800782-33.082031-73.882813-73.882813-73.882813zm0 0" fill="#5fc9ed"/><path d="m133.339844 483.128906v.011719c-13.339844 13.199219-31.699219 21.359375-51.960938 21.359375-20.179687 0-38.480468-8.101562-51.808594-21.21875.96875-4.210938 3.339844-8.082031 6.769532-11.222656 4.832031-4.4375 11.289062-6.6875 17.851562-6.6875h54.558594c6.570312 0 13.019531 2.25 17.859375 6.6875 3.378906 3.113281 5.742187 6.910156 6.730469 11.070312zm0 0" fill="#5186ff"/><path d="m126.609375 472.058594c-3.011719-2.761719-6.648437-4.675782-10.550781-5.726563-3.429688 6.199219-7.71875 11.855469-12.71875 16.796875v.011719c-9.957032 9.847656-22.707032 16.886719-36.957032 19.828125 2.390626.496094 4.828126.871094 7.296876 1.128906.03125.003906.0625.007813.097656.011719 1.113281.117187 2.242187.195313 3.371094.261719.140624.007812.277343.023437.417968.03125 1.261719.0625 2.535156.097656 3.8125.097656 20.261719 0 38.621094-8.160156 51.960938-21.359375v-.011719c-.992188-4.160156-3.351563-7.957031-6.730469-11.070312zm0 0" fill="#476eea"/><path d="m94.792969 432.882812-8.320313 5.074219c-3.070312 1.871094-6.929687 1.871094-10 0l-8.320312-5.074219c-2.867188-1.746093-4.617188-4.863281-4.617188-8.222656v-22.28125c0-6.128906 4.960938-11.097656 11.082032-11.097656h13.710937c6.121094 0 11.078125 4.96875 11.078125 11.097656v22.28125c0 3.359375-1.75 6.476563-4.613281 8.222656zm0 0" fill="#fff"/><path d="m255.699219 185.210938c-37.757813 0-68.371094 30.609374-68.371094 68.367187 0 37.75 30.613281 68.363281 68.371094 68.363281 37.75 0 68.359375-30.613281 68.359375-68.363281 0-37.757813-30.609375-68.367187-68.359375-68.367187zm46.550781 73.199218c-1.191406 23.53125-20.308594 42.648438-43.839844 43.839844-27.480468 1.398438-50.058594-21.179688-48.660156-48.660156 1.191406-23.53125 20.308594-42.648438 43.839844-43.839844 27.480468-1.398438 50.058594 21.179688 48.660156 48.660156zm0 0" fill="#89b4c9"/><path d="m30.320312 352.554688c1.226563 2.808593 3.964844 4.472656 6.84375 4.472656.992188 0 2.007813-.199219 2.976563-.617188 3.789063-1.628906 5.542969-6.035156 3.9375-9.835937l-6.925781 2.882812 6.914062-2.898437c-1.597656-3.820313-5.996094-5.617188-9.8125-4.019532-3.820312 1.605469-5.621094 6-4.019531 9.816407.015625.035156.070313.164062.085937.199219zm0 0"/><path d="m19.980469 323.433594c1.003906 3.210937 3.960937 5.265625 7.15625 5.265625.738281 0 1.492187-.109375 2.238281-.34375 3.910156-1.222657 6.109375-5.347657 4.960938-9.265625-1.105469-3.972656-5.210938-6.3125-9.199219-5.222656-3.996094 1.089843-6.351563 5.210937-5.261719 9.207031.023438.089843.078125.273437.105469.359375zm0 0"/><path d="m18.054688 269.347656c.074218 0 .148437 0 .226562-.003906 4.140625-.121094 7.398438-3.574219 7.277344-7.714844l-.003906-.101562c-.121094-4.140625-3.550782-7.347656-7.714844-7.226563-4.144532.121094-7.398438 3.625-7.277344 7.765625.121094 4.066406 3.453125 7.28125 7.492188 7.28125zm0 0"/><path d="m13.3125 292.933594c.5625 3.714844 3.761719 6.375 7.40625 6.375.375 0 .753906-.027344 1.132812-.085938 4.09375-.617187 6.914063-4.441406 6.292969-8.535156l-7.429687 1.023438 7.417968-1.09375c-.601562-4.097657-4.417968-6.933594-8.511718-6.328126-4.097656.605469-6.929688 4.414063-6.328125 8.511719.003906.011719.019531.121094.019531.132813zm0 0"/><path d="m16.882812 200.253906c-.03125.117188-.058593.230469-.082031.351563-.835937 4.058593 1.777344 8.023437 5.835938 8.859375.507812.105468 1.019531.15625 1.519531.15625 3.445312-.003906 6.539062-2.390625 7.3125-5.871094.953125-4.015625-1.519531-8.046875-5.53125-9.019531-4.03125-.972657-8.082031 1.5-9.054688 5.523437zm8.003907 1.941406-.714844-.175781.753906.183594zm0 0"/><path d="m11.746094 231c-.433594 4.078125 2.496094 7.757812 6.582031 8.238281.296875.035157.59375.050781.886719.050781 3.75 0 6.988281-2.808593 7.4375-6.625l.03125-.3125c.363281-4.125-2.683594-7.753906-6.804688-8.121093-4.089844-.375-7.738281 2.667969-8.132812 6.769531zm0 0"/><path d="m30.1875 180.335938c.867188.324218 1.757812.480468 2.632812.480468 3.035157 0 5.894532-1.855468 7.023438-4.867187l.035156-.09375c1.453125-3.878907-.511718-8.203125-4.390625-9.65625-3.878906-1.457031-8.203125.507812-9.65625 4.386719l-.035156.09375c-1.453125 3.878906.511719 8.203124 4.390625 9.65625zm0 0"/><path d="m495.0625 200.273438c-.976562-4.027344-5.023438-6.488282-9.050781-5.515626-4.003907.96875-6.472657 4.992188-5.539063 9 .769532 3.488282 3.867188 5.878907 7.3125 5.878907.503906 0 1.011719-.050781 1.523438-.15625 4.054687-.832031 6.667968-4.800781 5.832031-8.855469-.023437-.121094-.050781-.234375-.078125-.351562zm0 0"/><path d="m486.140625 170.597656c-1.457031-3.878906-5.773437-5.839844-9.65625-4.386718-3.878906 1.453124-5.84375 5.773437-4.390625 9.652343l.035156.097657c1.128906 3.007812 3.984375 4.867187 7.023438 4.867187.875 0 1.765625-.15625 2.632812-.480469 3.878906-1.453125 5.84375-5.777344 4.390625-9.65625zm0 0"/><path d="m491.875 224.269531c-4.097656.476563-7.03125 4.1875-6.582031 8.28125.382812 3.859375 3.636719 6.757813 7.453125 6.753907.222656 0 .445312-.007813.667968-.027344 4.125-.363282 7.175782-4.003906 6.8125-8.128906l-.03125-.316407c-.484374-4.113281-4.214843-7.046875-8.320312-6.5625zm0 0"/><path d="m467.976562 346.539062c-1.660156 3.796876.070313 8.21875 3.867188 9.878907.976562.429687 1.996094.632812 3 .632812 2.890625 0 5.644531-1.683593 6.875-4.496093.015625-.035157.070312-.164063.085938-.199219 1.601562-3.820313-.191407-8.222657-4.015626-9.824219-3.820312-1.597656-8.210937.191406-9.8125 4.007812zm0 0"/><path d="m484.929688 328.710938c3.195312 0 6.15625-2.054688 7.15625-5.265626.027343-.085937.082031-.269531.105468-.359374 1.089844-3.992188-1.265625-8.105469-5.261718-9.199219-3.976563-1.085938-8.078126 1.246093-9.195313 5.203125-1.15625 3.917968 1.042969 8.054687 4.957031 9.277344.746094.234374 1.496094.34375 2.238282.34375zm0 0"/><path d="m498.742188 292.945312c.003906-.011718.019531-.121093.019531-.132812.601562-4.089844-2.226563-7.847656-6.320313-8.457031-4.078125-.609375-7.90625 2.253906-8.527344 6.34375-.621093 4.09375 2.195313 7.917969 6.292969 8.539062.378907.058594.757813.085938 1.132813.085938 3.640625 0 6.839844-2.664063 7.402344-6.378907zm0 0"/><path d="m501.445312 261.957031c.109376-4.132812-3.144531-7.574219-7.277343-7.695312-4.148438-.128907-7.59375 3.136719-7.71875 7.277343 0 .070313-.003907.246094-.003907.320313 0 4.140625 3.359376 7.5 7.5 7.5 4.109376 0 7.449219-3.304687 7.5-7.402344zm-6.40625-.164062-1.089843-.035157 1.179687.035157zm0 0"/><path d="m290.703125 28.109375c.382813.054687.757813.085937 1.132813.085937 3.644531 0 6.84375-2.664062 7.40625-6.378906.621093-4.09375-2.195313-7.917968-6.292969-8.539062-.011719 0-.121094-.019532-.132813-.019532-4.089844-.605468-7.847656 2.230469-8.457031 6.320313-.613281 4.089844 2.253906 7.910156 6.34375 8.53125zm0 0"/><path d="m202.054688 31.734375c.5625 0 1.136718-.0625 1.707031-.199219 3.996093-.882812 6.554687-4.8125 5.726562-8.835937-.835937-4.054688-4.796875-6.671875-8.859375-5.832031-.117187.023437-.234375.050781-.351562.078124-4.023438.976563-6.488282 5.027344-5.515625 9.050782.832031 3.433594 3.90625 5.738281 7.292969 5.738281zm0 0"/><path d="m231.644531 26.773438c.289063 0 .585938-.015626.882813-.050782.035156-.003906.121094-.011718.15625-.019531 4.117187-.480469 7.085937-4.210937 6.601562-8.324219-.480468-4.113281-4.179687-7.054687-8.292968-6.578125-.035157.003907-.121094.015625-.15625.019531-4.117188.484376-7.089844 4.214844-6.605469 8.328126.449219 3.816406 3.664062 6.625 7.414062 6.625zm0 0"/><path d="m346.542969 44.050781c.980469.425781 1.996093.628907 3.003906.628907 2.886719 0 5.640625-1.679688 6.875-4.496094 1.65625-3.792969-.070313-8.214844-3.867187-9.875-.035157-.019532-.160157-.070313-.195313-.085938-3.820313-1.605468-8.222656.191406-9.824219 4.011719-1.601562 3.820313.1875 8.210937 4.007813 9.816406zm0 0"/><path d="m319.09375 34.292969c.707031.207031 1.417969.304687 2.121094.304687 3.191406 0 6.152344-2.054687 7.15625-5.261718 1.234375-3.957032-.96875-8.160157-4.921875-9.398438-.089844-.027344-.269531-.082031-.359375-.101562-3.988282-1.089844-8.105469 1.265624-9.199219 5.257812-1.085937 3.972656 1.246094 8.082031 5.203125 9.199219zm0 0"/><path d="m261.542969 25.566406c.074219 0 .246093.003906.320312.003906 4.144531 0 7.5-3.355468 7.5-7.5 0-4.109374-3.304687-7.445312-7.402343-7.5-.066407 0-.136719 0-.199219 0-4.042969 0-7.375 3.214844-7.496094 7.277344-.121094 4.140625 3.136719 7.597656 7.277344 7.71875zm0 0"/><path d="m173.234375 40.390625c.875 0 1.765625-.15625 2.632813-.480469l.09375-.035156c3.878906-1.453125 5.84375-5.777344 4.390624-9.65625-1.457031-3.878906-5.777343-5.839844-9.65625-4.390625l-.09375.035156c-3.878906 1.457031-5.84375 5.777344-4.390624 9.65625 1.128906 3.011719 3.984374 4.871094 7.023437 4.871094zm0 0"/><path d="m405.59375 78.65625c.910156 4.679688 3.761719 8.875 7.894531 11.394531l7.460938 4.546875c.03125.015625.0625.039063.097656.058594l.761719.464844c2.746094 1.671875 5.824218 2.511718 8.902344 2.511718 3.078124 0 6.15625-.839843 8.902343-2.511718l8.320313-5.070313v-.003906c5.066406-3.085937 8.210937-8.691406 8.210937-14.628906v-22.28125c0-10.25-8.332031-18.59375-18.578125-18.59375h-13.714844c-10.242187 0-18.578124 8.34375-18.578124 18.59375v22.28125c0 .875.078124 1.742187.210937 2.59375.027344.21875.0625.433593.109375.644531zm14.683594-25.519531c0-1.980469 1.605468-3.59375 3.578125-3.59375h13.710937c1.976563 0 3.582032 1.613281 3.582032 3.59375v22.28125c0 .742187-.394532 1.4375-1.023438 1.824219l-8.316406 5.070312c-.675782.410156-1.515625.410156-2.191406 0l-1.113282-.679688s-.003906 0-.007812-.003906l-7.199219-4.390625c-.628906-.382812-1.019531-1.082031-1.019531-1.820312zm0 0"/><path d="m232.667969 485.339844-.316407-.03125c-4.128906-.375-7.753906 2.679687-8.117187 6.804687-.367187 4.109375 2.664063 7.742188 6.765625 8.132813.269531.027344.535156.042968.800781.042968 3.75 0 6.992188-2.808593 7.4375-6.625.484375-4.113281-2.457031-7.84375-6.570312-8.324218zm0 0"/><path d="m290.6875 483.851562 1.027344 7.429688-1.09375-7.421875c-4.097656.605469-6.929688 4.414063-6.328125 8.511719.546875 3.730468 3.75 6.410156 7.410156 6.410156.363281 0 .730469-.023438 1.101563-.082031.011718 0 .121093-.015625.128906-.019531 4.097656-.617188 6.914062-4.441407 6.292968-8.535157-.621093-4.097656-4.457031-6.914062-8.539062-6.292969zm0 0"/><path d="m319.09375 477.675781c-3.972656 1.105469-6.308594 5.214844-5.222656 9.199219.910156 3.335938 3.933594 5.527344 7.230468 5.527344.65625 0 1.320313-.085938 1.980469-.265625.089844-.023438.269531-.078125.359375-.105469 3.953125-1.234375 6.15625-5.441406 4.921875-9.394531-1.222656-3.910157-5.351562-6.105469-9.269531-4.960938zm0 0"/><path d="m175.945312 472.160156-.09375-.035156c-3.878906-1.453125-8.199218.511719-9.65625 4.390625-1.453124 3.878906.511719 8.203125 4.390626 9.65625l.09375.035156c.867187.324219 1.757812.476563 2.632812.476563 3.035156 0 5.894531-1.855469 7.023438-4.867188 1.453124-3.878906-.511719-8.203125-4.390626-9.65625zm0 0"/><path d="m346.585938 467.949219 2.882812 6.921875-2.902344-6.914063c-3.820312 1.601563-5.617187 5.996094-4.015625 9.816407 1.207031 2.871093 3.988281 4.601562 6.921875 4.601562.964844 0 1.949219-.1875 2.894532-.585938.035156-.015624.164062-.066406.199218-.085937 3.777344-1.648437 5.484375-6.03125 3.855469-9.820313-1.628906-3.789062-6.035156-5.535156-9.835937-3.933593zm0 0"/><path d="m261.628906 486.417969-.101562.003906c-4.140625.121094-7.347656 3.574219-7.226563 7.714844.121094 4.0625 3.5 7.277343 7.542969 7.277343.074219 0 .148438 0 .226562-.003906 4.140626-.121094 7.394532-3.574218 7.273438-7.71875-.121094-4.136718-3.558594-7.378906-7.714844-7.273437zm0 0"/><path d="m203.75 480.53125c-4.015625-.949219-8.046875 1.519531-9.019531 5.53125-.976563 4.027344 1.496093 8.078125 5.523437 9.054688.113282.03125.230469.058593.351563.082031.511719.105469 1.019531.15625 1.519531.15625 3.484375 0 6.609375-2.445313 7.339844-5.992188.824218-4.015625-1.726563-7.945312-5.714844-8.832031zm0 0"/><path d="m253.210938 202.257812c-3.746094.1875-7.484376.777344-11.101563 1.75-4 1.074219-6.371094 5.1875-5.296875 9.1875s5.191406 6.371094 9.1875 5.296876c2.597656-.695313 5.277344-1.121094 7.96875-1.257813 11.144531-.570313 21.613281 3.457031 29.476562 11.320313 7.863282 7.859374 11.882813 18.332031 11.316407 29.476562-.992188 19.605469-17.128907 35.738281-36.730469 36.730469-11.144531.578125-21.617188-3.453125-29.476562-11.316407-7.863282-7.859374-11.882813-18.332031-11.320313-29.476562.363281-7.148438 2.734375-14.0625 6.859375-19.996094 2.367188-3.402344 1.527344-8.074218-1.875-10.4375-3.402344-2.367187-8.074219-1.523437-10.4375 1.875-5.726562 8.234375-9.019531 17.847656-9.523438 27.800782-.773437 15.214843 4.945313 30.097656 15.6875 40.84375 10.101563 10.101562 23.863282 15.757812 38.121094 15.757812.902344 0 1.8125-.023438 2.722656-.066406 27.195313-1.378906 49.578126-23.761719 50.953126-50.953125.773437-15.214844-4.945313-30.101563-15.6875-40.84375-10.742188-10.746094-25.621094-16.453125-40.84375-15.691407zm0 0"/><path d="m341.484375 304.804688-6.859375-7.996094c2.128906-4.09375 3.9375-8.363282 5.398438-12.742188l10.664062-.648437c9.152344-.554688 16.324219-8.175781 16.324219-17.34375v-18.6875c0-9.027344-7.050781-16.636719-16.050781-17.324219-.003907 0-.003907 0-.003907 0l-10.503906-.804688c-1.394531-4.386718-3.136719-8.683593-5.203125-12.816406l7.09375-8.011718c6.078125-6.863282 5.757812-17.320313-.726562-23.800782l-13.210938-13.214844c-6.386719-6.382812-16.753906-6.777343-23.601562-.898437l-7.996094 6.859375c-4.09375-2.128906-8.363282-3.9375-12.746094-5.398438l-.648438-10.664062c-.554687-9.152344-8.171874-16.324219-17.339843-16.324219h-18.6875c-9.027344 0-16.640625 7.050781-17.328125 16.054688l-.800782 10.503906c-4.84375 1.53125-9.558593 3.484375-14.070312 5.828125l-7.992188-6.859375c-6.855468-5.878906-17.21875-5.484375-23.601562.898437l-13.214844 13.214844c-6.484375 6.480469-6.800781 16.9375-.722656 23.804688l7.089844 8.011718c-2.066406 4.132813-3.808594 8.425782-5.199219 12.816407l-10.507813.800781c-9 .6875-16.050781 8.300781-16.050781 17.324219v18.6875c0 9.171875 7.167969 16.789062 16.320313 17.34375l10.664062.648437c1.460938 4.378906 3.269532 8.652344 5.398438 12.746094l-6.859375 7.992188c-5.878907 6.851562-5.484375 17.21875.898437 23.601562l13.214844 13.214844c6.484375 6.484375 16.9375 6.800781 23.804688.722656l8.011718-7.089844c4.132813 2.066406 8.425782 3.8125 12.816406 5.203125l.800782 10.503907c.6875 9 8.300781 16.050781 17.324218 16.050781h18.6875c9.171876 0 16.789063-7.167969 17.34375-16.320313l.648438-10.667968c3.925781-1.3125 7.773438-2.910157 11.492188-4.769532l8.011718 7.089844c6.863282 6.078125 17.320313 5.761719 23.804688-.722656l13.214844-13.214844c6.382812-6.382812 6.777343-16.75.898437-23.601562zm-11.503906 12.996093-13.214844 13.210938c-.886719.890625-2.316406.929687-3.253906.101562l-9.742188-8.625c-3.625-3.207031-8.917969-3.835937-13.167969-1.5625-4.207031 2.253907-8.640624 4.09375-13.175781 5.472657-4.605469 1.398437-7.898437 5.582031-8.191406 10.410156l-.789063 12.972656c-.078124 1.25-1.117187 2.230469-2.371093 2.230469h-18.6875c-1.234375 0-2.273438-.964844-2.367188-2.195313l-.980469-12.804687c-.367187-4.824219-3.730468-8.960938-8.363281-10.289063-4.921875-1.410156-9.726562-3.359375-14.273437-5.789062-1.707032-.914063-3.582032-1.363282-5.449219-1.363282-2.785156 0-5.554687.996094-7.726563 2.917969l-9.742187 8.625c-.9375.828125-2.367187.785157-3.25-.101562l-13.214844-13.210938c-.875-.875-.925781-2.292969-.125-3.230469l8.367188-9.75c3.148437-3.667968 3.691406-8.972656 1.351562-13.191406-2.492187-4.496094-4.511719-9.269531-6.007812-14.191406-1.40625-4.613281-5.589844-7.910156-10.417969-8.203125l-12.96875-.789063c-1.25-.078124-2.230469-1.117187-2.230469-2.371093v-18.6875c0-1.234375.964844-2.273438 2.195313-2.367188l12.804687-.980469c4.820313-.367187 8.957031-3.730468 10.289063-8.363281 1.410156-4.925781 3.359375-9.726562 5.789062-14.269531 2.277344-4.261719 1.652344-9.554688-1.554687-13.179688l-8.625-9.738281c-.832031-.9375-.789063-2.367187.097656-3.253906l13.214844-13.214844c.871093-.871093 2.289062-.925781 3.226562-.125l9.746094 8.367188c3.675781 3.148437 8.976563 3.695312 13.1875 1.355469 4.84375-2.683594 9.996094-4.816407 15.320313-6.34375 4.628906-1.328126 7.992187-5.460938 8.359374-10.285157l.976563-12.804687c.09375-1.230469 1.136719-2.195313 2.371094-2.195313h18.6875c1.25 0 2.292969.980469 2.367187 2.230469l.789063 12.972656c.296875 4.828125 3.59375 9.011719 8.207031 10.414063 4.921875 1.496093 9.695312 3.515625 14.191406 6.007812 4.21875 2.339844 9.519532 1.796875 13.195313-1.351562l9.746093-8.363281c.933594-.804688 2.355469-.753907 3.226563.121093l13.214844 13.214844c.886719.886719.929687 2.3125.097656 3.253906l-8.621094 9.738281c-3.210937 3.625-3.835937 8.917969-1.558593 13.175782 2.429687 4.546875 4.378906 9.347656 5.792968 14.273437 1.332032 4.632813 5.464844 7.996094 10.285156 8.363281l12.804688.980469c1.234375.09375 2.195312 1.132813 2.195312 2.367188v18.6875c0 1.253906-.976562 2.292969-2.230468 2.371093l-12.96875.789063c-4.828125.292969-9.011719 3.589844-10.414063 8.203125-1.496093 4.921875-3.519531 9.695312-6.011719 14.191406-2.339843 4.222656-1.796874 9.523438 1.355469 13.195313l8.363281 9.746093c.804688.9375.75 2.355469-.121093 3.230469zm0 0"/><path d="m23.886719 138.921875c.328125.378906.691406.730469 1.09375 1.039063 4.609375 4.441406 9.734375 8.34375 15.285156 11.605468.40625.335938.847656.640625 1.335937.894532.296876.15625.601563.285156.910157.398437 11.554687 6.308594 24.800781 9.902344 38.871093 9.902344 21.96875 0 41.917969-8.765625 56.574219-22.964844.4375-.34375.839844-.730469 1.191407-1.160156 14.585937-14.714844 23.613281-34.949219 23.613281-57.257813 0-14.027344-3.566407-27.234375-9.84375-38.769531-.097657-.28125-.203125-.558594-.335938-.832031-.292969-.605469-.664062-1.148438-1.082031-1.632813-14.171875-24-40.289062-40.144531-70.117188-40.144531-44.875 0-81.382812 36.507812-81.382812 81.382812 0 22.445313 9.136719 42.800782 23.886719 57.539063zm14.550781-6.980469c.773438-1.28125 1.769531-2.492187 2.976562-3.597656 3.308594-3.039062 7.84375-4.710938 12.777344-4.710938h54.558594c4.933594 0 9.476562 1.671876 12.78125 4.707032 1.175781 1.082031 2.148438 2.257812 2.910156 3.496094-11.601562 9.917968-26.636718 15.925781-43.058594 15.925781-16.367187 0-31.359374-5.964844-42.945312-15.820313zm42.945312-116.941406c36.601563 0 66.378907 29.777344 66.378907 66.382812 0 14.683594-4.800781 28.265626-12.910157 39.273438-.960937-1.175781-2.019531-2.300781-3.171874-3.363281-6.089844-5.585938-14.234376-8.660157-22.929688-8.660157h-54.558594c-8.703125 0-16.847656 3.078126-22.917968 8.65625-1.195313 1.097657-2.289063 2.265626-3.28125 3.488282-8.15625-11.027344-12.992188-24.65625-12.992188-39.394532 0-36.605468 29.777344-66.382812 66.382812-66.382812zm0 0"/><path d="m64.25 90.050781 8.320312 5.066407c2.746094 1.675781 5.824219 2.515624 8.902344 2.515624s6.15625-.839843 8.902344-2.511718l8.320312-5.070313v-.003906c5.066407-3.085937 8.210938-8.691406 8.210938-14.628906v-22.28125c0-10.25-8.335938-18.59375-18.578125-18.59375h-13.710937c-10.246094 0-18.582032 8.34375-18.582032 18.59375v22.28125c0 5.9375 3.148438 11.542969 8.214844 14.632812zm6.785156-36.914062c0-1.980469 1.605469-3.59375 3.582032-3.59375h13.710937c1.976563 0 3.578125 1.613281 3.578125 3.59375v22.28125c0 .742187-.390625 1.4375-1.019531 1.824219l-8.320313 5.070312c-.675781.410156-1.511718.410156-2.1875 0l-8.320312-5.070312c-.628906-.386719-1.019532-1.082032-1.019532-1.824219v-22.28125zm0 0"/><path d="m373.117188 138.914062c.332031.386719.703124.742188 1.109374 1.058594 14.640626 14.09375 34.515626 22.789063 56.390626 22.789063 14.023437 0 27.226562-3.566407 38.753906-9.835938.289062-.097656.570312-.210937.851562-.347656.605469-.292969 1.144532-.660156 1.632813-1.082031 5.574219-3.289063 10.714843-7.222656 15.335937-11.699219.441406-.34375.84375-.730469 1.195313-1.160156 14.585937-14.714844 23.613281-34.949219 23.613281-57.253907 0-44.875-36.507812-81.382812-81.382812-81.382812-44.871094 0-81.378907 36.507812-81.378907 81.382812 0 22.441407 9.132813 42.792969 23.878907 57.53125zm14.558593-6.972656c.773438-1.28125 1.769531-2.492187 2.980469-3.597656 3.304688-3.039062 7.839844-4.710938 12.773438-4.710938h54.558593c4.933594 0 9.476563 1.671876 12.78125 4.707032 1.175781 1.082031 2.152344 2.257812 2.914063 3.496094-11.605469 9.917968-26.640625 15.925781-43.066406 15.925781-16.363282 0-31.355469-5.964844-42.941407-15.820313zm42.941407-116.941406c36.605468 0 66.382812 29.777344 66.382812 66.382812 0 14.683594-4.804688 28.265626-12.90625 39.273438-.964844-1.175781-2.023438-2.300781-3.175781-3.363281-6.089844-5.585938-14.230469-8.660157-22.929688-8.660157h-54.558593c-8.703126 0-16.84375 3.078126-22.914063 8.65625-1.199219 1.097657-2.292969 2.265626-3.28125 3.488282-8.160156-11.027344-12.996094-24.65625-12.996094-39.398438 0-36.601562 29.78125-66.378906 66.378907-66.378906zm0 0"/><path d="m81.382812 349.238281c-23.695312 0-46.167968 10.300781-61.65625 28.257813-2.703124 3.136718-2.355468 7.875.78125 10.578125 3.136719 2.703125 7.871094 2.355469 10.578126-.78125 12.636718-14.648438 30.96875-23.054688 50.296874-23.054688 36.601563 0 66.378907 29.777344 66.378907 66.378907 0 14.6875-4.800781 28.269531-12.910157 39.277343-.960937-1.175781-2.015624-2.300781-3.171874-3.363281-6.089844-5.585938-14.234376-8.664062-22.929688-8.664062h-54.558594c-8.703125 0-16.847656 3.082031-22.917968 8.660156-1.195313 1.097656-2.289063 2.265625-3.28125 3.488281-8.15625-11.027344-12.992188-24.65625-12.992188-39.398437 0-5.707032.726562-11.371094 2.152344-16.839844 1.046875-4.007813-1.351563-8.105469-5.359375-9.152344-4.007813-1.046875-8.105469 1.355469-9.152344 5.359375-1.75 6.707031-2.640625 13.648437-2.640625 20.632813 0 22.449218 9.136719 42.804687 23.886719 57.542968.328125.382813.691406.730469 1.09375 1.042969 14.636719 14.097656 34.515625 22.796875 56.402343 22.796875 21.964844 0 41.914063-8.765625 56.570313-22.960938.4375-.34375.84375-.730468 1.195313-1.164062 4.800781-4.84375 8.988281-10.292969 12.457031-16.210938.320312-.390624.613281-.804687.855469-1.265624.152343-.292969.277343-.589844.386718-.890626 6.316406-11.5625 9.914063-24.8125 9.914063-38.890624 0-44.871094-36.507813-81.378907-81.378907-81.378907zm-42.945312 131.941407c.773438-1.28125 1.769531-2.492188 2.976562-3.597657 3.308594-3.039062 7.84375-4.714843 12.777344-4.714843h54.558594c4.933594 0 9.476562 1.679687 12.78125 4.710937 1.171875 1.082031 2.148438 2.257813 2.910156 3.496094-11.601562 9.917969-26.636718 15.925781-43.058594 15.925781-16.367187 0-31.359374-5.964844-42.945312-15.820312zm0 0"/><path d="m106.90625 424.65625v-22.277344c0-10.253906-8.332031-18.597656-18.578125-18.597656h-13.710937c-10.246094 0-18.582032 8.34375-18.582032 18.597656v22.277344c0 5.9375 3.148438 11.542969 8.214844 14.628906l8.320312 5.074219c2.746094 1.671875 5.824219 2.511719 8.902344 2.511719s6.15625-.839844 8.902344-2.511719l8.320312-5.074219c5.066407-3.085937 8.210938-8.691406 8.210938-14.628906zm-15 0c0 .742188-.390625 1.441406-1.019531 1.820312l-8.320313 5.074219c-.675781.414063-1.511718.410157-2.1875 0l-8.324218-5.074219c-.625-.382812-1.019532-1.078124-1.019532-1.820312v-22.277344c0-1.984375 1.605469-3.597656 3.582032-3.597656h13.710937c1.976563 0 3.578125 1.613281 3.578125 3.597656zm0 0"/><path d="m430.617188 349.238281c-44.871094 0-81.378907 36.507813-81.378907 81.378907 0 22.445312 9.132813 42.796874 23.878907 57.535156.332031.386718.703124.742187 1.109374 1.058594 14.640626 14.09375 34.515626 22.789062 56.390626 22.789062 21.597656 0 41.941406-8.371094 57.277343-23.570312 2.222657-2.199219 2.777344-5.449219 1.660157-8.171876-1.453126-5.109374-4.40625-9.835937-8.636719-13.726562-6.089844-5.585938-14.230469-8.664062-22.929688-8.664062h-54.558593c-8.703126 0-16.847657 3.082031-22.914063 8.660156-1.199219 1.097656-2.292969 2.265625-3.28125 3.488281-8.160156-11.027344-12.996094-24.65625-12.996094-39.398437 0-36.601563 29.777344-66.378907 66.378907-66.378907 36.605468 0 66.382812 29.777344 66.382812 66.378907 0 8.390624-1.542969 16.5625-4.582031 24.289062-1.515625 3.855469.378906 8.207031 4.234375 9.726562 3.855468 1.515626 8.207031-.382812 9.726562-4.234374 3.726563-9.484376 5.621094-19.503907 5.621094-29.777344 0-44.875-36.507812-81.382813-81.382812-81.382813zm-39.960938 128.34375c3.304688-3.039062 7.839844-4.714843 12.773438-4.714843h54.558593c4.933594 0 9.476563 1.675781 12.78125 4.710937 1.183594 1.089844 2.164063 2.277344 2.925781 3.523437-12.007812 10.277344-27.117187 15.898438-43.078124 15.898438-16.363282 0-31.355469-5.964844-42.941407-15.820312.773438-1.28125 1.769531-2.492188 2.980469-3.597657zm0 0"/><path d="m456.148438 424.65625v-22.277344c0-10.253906-8.335938-18.597656-18.582032-18.597656h-13.710937c-10.246094 0-18.578125 8.34375-18.578125 18.597656v22.277344c0 5.9375 3.144531 11.542969 8.210937 14.628906l8.320313 5.074219c2.746094 1.671875 5.824218 2.511719 8.902344 2.511719 3.078124 0 6.15625-.839844 8.902343-2.511719l8.320313-5.074219c5.066406-3.085937 8.214844-8.691406 8.214844-14.628906zm-15 0c0 .742188-.390626 1.441406-1.019532 1.820312h-.003906l-8.320312 5.074219c-.675782.414063-1.515626.410157-2.1875 0l-8.320313-5.074219c-.628906-.382812-1.019531-1.078124-1.019531-1.820312v-22.277344c0-1.984375 1.605468-3.597656 3.578125-3.597656h13.710937c1.976563 0 3.582032 1.613281 3.582032 3.597656zm0 0"/></svg>