<svg id="Filled" height="135" viewBox="0 0 512 512" width="250" xmlns="http://www.w3.org/2000/svg"><g><g><g><g><rect fill="#25b1fa" height="432" rx="10" width="304" x="184" y="56"/><path d="m216 88h240v368h-240z" fill="#e6f8ff"/><path d="m366.992 48a32.011 32.011 0 0 0 -61.984 0h-57.008v54a10 10 0 0 0 10 10h156a10 10 0 0 0 10-10v-54z" fill="#80daff"/></g><circle cx="376" cy="376" fill="#80daff" r="48"/></g><g><circle cx="160" cy="280" fill="#fdbf67" r="136"/><circle cx="160" cy="280" fill="#fff2e1" r="96"/></g><rect fill="#fb8656" height="80" rx="20" transform="matrix(-1 0 0 -1 320 896)" width="272" x="24" y="408"/></g><path d="m480 478a2 2 0 0 1 -2 2h-158v16h158a18.021 18.021 0 0 0 18-18v-294h-16z"/><path d="m478 48h-46a8 8 0 0 0 -8-8h-51.324a40.024 40.024 0 0 0 -73.352 0h-51.324a8 8 0 0 0 -8 8h-46a18.021 18.021 0 0 0 -18 18v54h16v-54a2 2 0 0 1 2-2h46v16h-24a8 8 0 0 0 -8 8v41.917h16v-33.917h16v6a18.021 18.021 0 0 0 18 18h156a18.021 18.021 0 0 0 18-18v-6h16v352h-128v16h136a8 8 0 0 0 8-8v-368a8 8 0 0 0 -8-8h-24v-16h46a2 2 0 0 1 2 2v102h16v-102a18.021 18.021 0 0 0 -18-18zm-62 54a2 2 0 0 1 -2 2h-156a2 2 0 0 1 -2-2v-46h49.008a8 8 0 0 0 7.747-6.006 24.011 24.011 0 0 1 46.49 0 8 8 0 0 0 7.747 6.006h49.008z"/><path d="m336 168h96v16h-96z"/><path d="m312 208h56v16h-56z"/><path d="m384 208h48v16h-48z"/><path d="m320 248h112v16h-112z"/><path d="m320 288h32v16h-32z"/><path d="m368 288h64v16h-64z"/><path d="m384 72h16v16h-16z"/><path d="m288 168h32v16h-32z"/><path d="m272 72h16v16h-16z"/><path d="m376 432a56 56 0 1 0 -56-56 56.063 56.063 0 0 0 56 56zm0-96a40 40 0 1 1 -40 40 40.045 40.045 0 0 1 40-40z"/><path d="m368 400h16v-16h16v-16h-16v-16h-16v16h-16v16h16z"/><path d="m277.751 362.91a143.088 143.088 0 0 0 26.249-82.91c0-79.4-64.6-144-144-144s-144 64.6-144 144a142.89 142.89 0 0 0 12.739 59.3l14.578-6.6a128.014 128.014 0 1 1 244.683-52.7 128.05 128.05 0 0 1 -83.045 119.885l.045.115h-90l.043-.115a128.953 128.953 0 0 1 -63.661-52.126l-13.567 8.483a145.208 145.208 0 0 0 42.61 43.758h-36.425a28.032 28.032 0 0 0 -28 28v40a28.032 28.032 0 0 0 28 28h232a28.032 28.032 0 0 0 28-28v-40a28.032 28.032 0 0 0 -28-28h-36.323a144.181 144.181 0 0 0 38.074-37.09zm10.249 65.09v40a12.013 12.013 0 0 1 -12 12h-12v-16h-16v16h-32v-32h-16v32h-32v-16h-16v16h-32v-32h-16v32h-32v-16h-16v16h-12a12.013 12.013 0 0 1 -12-12v-40a12.013 12.013 0 0 1 12-12h12v32h16v-32h32v16h16v-16h32v32h16v-32h32v16h16v-16h32v32h16v-32h12a12.013 12.013 0 0 1 12 12z"/><path d="m160 384a104 104 0 1 0 -104-104 104.118 104.118 0 0 0 104 104zm0-192a88 88 0 1 1 -88 88 88.1 88.1 0 0 1 88-88z"/><path d="m152 344h16v-16h12a28 28 0 0 0 0-56h-40a12 12 0 0 1 0-24h68v-16h-40v-16h-16v16h-12a28 28 0 0 0 0 56h40a12 12 0 0 1 0 24h-68v16h40z"/></g></svg>