<svg id="Layer_2" enable-background="new 0 0 96 96" height="150" viewBox="0 0 96 96" width="250" xmlns="http://www.w3.org/2000/svg"><path d="m3 43h64v8h-64z" fill="#ef6662"/><path d="m3 51h64v42h-64z" fill="#ddd"/><path d="m87 35c0 12.29-8.53 22.59-20 25.3v-17.3h-30.74c-.82-2.52-1.26-5.21-1.26-8 0-14.36 11.64-26 26-26v26z" fill="#c9c7c6"/><path d="m93 29c0-14.371-11.629-26-26-26v26z" fill="#f2ae40"/><path d="m53 83h8v10h-8z" fill="#6ebaed"/><path d="m61 78h8v15h-8z" fill="#5e92bc"/><path d="m69 68h8v25h-8z" fill="#6ebaed"/><path d="m77 62h8v31h-8z" fill="#5e92bc"/><g fill="#6ebaed"><path d="m85 74h8v19h-8z"/><circle cx="6" cy="31" r="3"/><circle cx="17" cy="10" r="3"/><circle cx="28" cy="20" r="3"/><circle cx="39" cy="6" r="3"/></g><path d="m15 44c.552 0 1-.447 1-1s-.448-1-1-1h-1c-.552 0-1 .447-1 1s.448 1 1 1z"/><path d="m67 2c-.552 0-1 .447-1 1v26c0 .553.448 1 1 1h26c.552 0 1-.447 1-1 0-14.888-12.112-27-27-27zm1 26v-23.98c12.992.513 23.467 10.989 23.981 23.98z"/><path d="m93 73h-8c-.552 0-1 .447-1 1v18h-6v-29h6v7c0 .553.448 1 1 1s1-.447 1-1v-8c0-.553-.448-1-1-1h-8c-.552 0-1 .447-1 1v5h-7c-.552 0-1 .447-1 1v9h-7c-.552 0-1 .447-1 1v4h-6v-2h2.51c.552 0 1-.447 1-1s-.448-1-1-1h-2.51v-5h5v1c0 .553.448 1 1 1s1-.447 1-1v-1h2c.552 0 1-.447 1-1s-.448-1-1-1h-2v-5h2c.552 0 1-.447 1-1s-.448-1-1-1h-2v-5h5v5c0 .553.448 1 1 1s1-.447 1-1v-2.943c11.811-3.157 20-13.746 20-26.057 0-.553-.448-1-1-1h-25v-25c0-.553-.448-1-1-1-14.552 0-26.446 11.574-26.975 26h-6.305l-2.772-8.316c-.135-.403-.51-.678-.935-.684-.005 0-.009 0-.014 0-.42 0-.796.263-.94.658l-3.206 8.815-2.96-5.921c-.181-.362-.567-.578-.965-.55-.403.028-.75.297-.878.681l-2.771 8.317h-9.279c-.552 0-1 .447-1 1s.448 1 1 1h10c.431 0 .812-.275.949-.684l2.236-6.71 2.92 5.841c.179.357.555.577.952.551.399-.022.746-.281.882-.656l3.019-8.303 2.092 6.277c.138.409.519.684.95.684h7.039c.075 2.041.375 4.049.901 6h-15.94c-.552 0-1 .447-1 1s.448 1 1 1h47v6h-62v-6h6c.552 0 1-.447 1-1s-.448-1-1-1h-7c-.552 0-1 .447-1 1v50c0 .553.448 1 1 1h90c.552 0 1-.447 1-1v-19c0-.553-.448-1-1-1zm-56.003-31c-.662-2.259-.997-4.61-.997-7 0-13.45 10.677-24.453 24-24.98v24.98c0 .553.448 1 1 1h24.98c-.421 10.794-7.637 20.009-17.98 23.004v-16.004c0-.553-.448-1-1-1zm24.003 10h5v5h-5zm-7 0h5v5h-5zm0 7h5v5h-5zm0 7h5v5h-5zm-44 26h-6v-5h6zm0-7h-6v-5h6zm0-7h-6v-5h6zm0-7h-6v-5h6zm0-7h-6v-5h6zm0-7h-6v-5h6zm7 35h-5v-5h5zm0-7h-5v-5h5zm0-7h-5v-5h5zm0-7h-5v-5h5zm0-7h-5v-5h5zm0-7h-5v-5h5zm7 35h-5v-5h5zm0-7h-5v-5h5zm0-7h-5v-5h5zm0-7h-5v-5h5zm0-7h-5v-5h5zm0-7h-5v-5h5zm7 35h-5v-5h5zm0-7h-5v-5h5zm0-7h-5v-5h5zm0-7h-5v-5h5zm0-7h-5v-5h5zm0-7h-5v-5h5zm7 35h-5v-5h5zm0-7h-5v-5h5zm0-7h-5v-5h5zm0-7h-5v-5h5zm0-7h-5v-5h5zm0-7h-5v-5h5zm7 35h-5v-5h5zm0-7h-5v-5h5zm0-7h-5v-5h5zm0-7h-5v-5h5zm0-7h-5v-5h5zm0-7h-5v-5h5zm7 35h-5v-5h4.857c.051 0 .094-.022.143-.029zm0-6.971c-.049-.007-.092-.029-.143-.029h-4.857v-5h5zm0-7.029h-5v-5h5zm0-7h-5v-5h5zm0-7h-5v-5h5zm0-7h-5v-5h5zm8 35h-6v-6-2h6zm8 0h-6v-13h6zm8 0h-6v-23h6zm16 0h-6v-17h6z"/><path d="m6 27c-2.206 0-4 1.794-4 4s1.794 4 4 4 4-1.794 4-4c0-1.175-.518-2.222-1.327-2.954l7.422-14.158c.292.068.593.112.905.112.81 0 1.562-.246 2.193-.661l5.28 4.814c-.292.555-.473 1.177-.473 1.847 0 2.206 1.794 4 4 4s4-1.794 4-4c0-.912-.318-1.743-.834-2.416l6.233-7.923c.491.215 1.031.339 1.601.339 2.206 0 4-1.794 4-4s-1.794-4-4-4-4 1.794-4 4c0 .912.318 1.743.834 2.416l-6.233 7.923c-.491-.215-1.031-.339-1.601-.339-.81 0-1.562.246-2.193.661l-5.28-4.814c.292-.555.473-1.177.473-1.847 0-2.206-1.794-4-4-4s-4 1.794-4 4c0 1.175.518 2.222 1.327 2.954l-7.422 14.158c-.292-.068-.593-.112-.905-.112zm33-23c1.103 0 2 .897 2 2s-.897 2-2 2-2-.897-2-2 .897-2 2-2zm-11 14c1.103 0 2 .897 2 2s-.897 2-2 2-2-.897-2-2 .897-2 2-2zm-11-10c1.103 0 2 .897 2 2s-.897 2-2 2-2-.897-2-2 .897-2 2-2zm-9 23c0 1.103-.897 2-2 2s-2-.897-2-2 .897-2 2-2 2 .897 2 2z"/><path d="m80.293 14.293-8 8c-.391.391-.391 1.023 0 1.414.195.195.451.293.707.293s.512-.098.707-.293l8-8c.391-.391.391-1.023 0-1.414s-1.023-.391-1.414 0z"/><circle cx="74" cy="16" r="1"/><circle cx="80" cy="22" r="1"/><path d="m49 24h2c1.103 0 2 .897 2 2 0 .553.448 1 1 1s1-.447 1-1c0-2.206-1.794-4-4-4v-1c0-.553-.448-1-1-1s-1 .447-1 1v1c-2.206 0-4 1.794-4 4s1.794 4 4 4h2c1.103 0 2 .897 2 2s-.897 2-2 2h-2c-1.103 0-2-.897-2-2 0-.553-.448-1-1-1s-1 .447-1 1c0 2.206 1.794 4 4 4v1c0 .553.448 1 1 1s1-.447 1-1v-1c2.206 0 4-1.794 4-4s-1.794-4-4-4h-2c-1.103 0-2-.897-2-2s.897-2 2-2z"/><circle cx="31" cy="47" r="1"/><circle cx="35" cy="47" r="1"/><circle cx="39" cy="47" r="1"/></svg>