<?xml version="1.0"?>
<svg xmlns="http://www.w3.org/2000/svg" id="Layer_1" data-name="Layer 1" viewBox="0 0 512 512" width="250" height="150"><title>Database Flow</title><path d="M291.5,304.51v86.31c0,25-55.95,45.23-125,45.23s-125-20.23-125-45.23V304.51c0,25,55.95,45.23,125,45.23S291.5,329.51,291.5,304.51Zm-39.24,80.2a10.335,10.335,0,1,0-10.34,10.34A10.339,10.339,0,0,0,252.26,384.71Z" style="fill:#e48e66"/><path d="M291.5,302.72v1.79c0,25-55.95,45.23-125,45.23s-125-20.23-125-45.23V218.79c0,25,55.95,45.24,125,45.24s125-20.24,125-45.24Z" style="fill:#f8ec7d"/><path d="M291.5,133.08v85.71c0,25-55.95,45.24-125,45.24s-125-20.24-125-45.24V133.08c0,24.98,55.96,45.24,125,45.24S291.5,158.06,291.5,133.08Zm-39.24,75.99a10.335,10.335,0,1,0-10.34,10.33A10.341,10.341,0,0,0,252.26,209.07Z" style="fill:#e48e66"/><ellipse cx="166.5" cy="133.08" rx="125" ry="45.24" style="fill:#f8ec7d"/><path d="M241.92,198.73a10.335,10.335,0,1,1-10.33,10.34A10.341,10.341,0,0,1,241.92,198.73Z" style="fill:#f8ec7d"/><path d="M241.92,374.38a10.335,10.335,0,1,1-10.33,10.33A10.339,10.339,0,0,1,241.92,374.38Z" style="fill:#f8ec7d"/><path d="M166.5,225.4a347.345,347.345,0,0,1-46.762-3.075,6,6,0,1,1,1.623-11.89A335.285,335.285,0,0,0,166.5,213.4a343.082,343.082,0,0,0,36.125-1.876,6,6,0,1,1,1.27,11.933A355.325,355.325,0,0,1,166.5,225.4Z" style="fill:#f8ec7d"/><path d="M166.5,313.22a347.269,347.269,0,0,1-46.762-3.075,6,6,0,1,1,1.623-11.89A335.2,335.2,0,0,0,166.5,301.22a340.335,340.335,0,0,0,36.12-1.876,6,6,0,1,1,1.279,11.932A352.477,352.477,0,0,1,166.5,313.22Z" style="fill:#e48e66"/><path d="M166.5,401.05a345.516,345.516,0,0,1-46.766-3.086,6,6,0,1,1,1.631-11.888A333.655,333.655,0,0,0,166.5,389.05a343.351,343.351,0,0,0,36.125-1.876,6,6,0,1,1,1.27,11.932A355.054,355.054,0,0,1,166.5,401.05Z" style="fill:#f8ec7d"/><path d="M428.5,410H352V262h77.5a6,6,0,0,0,0-12H352V102h76.5a6,6,0,0,0,0-12h-82c-3.313,0-6.5,2.636-6.5,5.95V250H293.5a6,6,0,0,0,0,12H340V415.95c0,3.314,3.187,6.05,6.5,6.05h82a6,6,0,0,0,0-12Z" style="fill:#e48e66"/><circle cx="448.5" cy="95.95" r="20" style="fill:#6fe3ff"/><circle cx="448.5" cy="255.95" r="20" style="fill:#6fe3ff"/><circle cx="448.5" cy="415.95" r="20" style="fill:#6fe3ff"/><path d="M252.26,296.89a10.335,10.335,0,1,0-10.34,10.33A10.332,10.332,0,0,0,252.26,296.89Z" style="fill:#e48e66"/></svg>
