<?xml version="1.0" encoding="iso-8859-1"?>
<!-- Generator: Adobe Illustrator 19.0.0, SVG Export Plug-In . SVG Version: 6.00 Build 0)  -->
<svg version="1.1" id="Capa_1" xmlns="http://www.w3.org/2000/svg" xmlns:xlink="http://www.w3.org/1999/xlink" x="0px" y="0px"
	 viewBox="0 0 520 520" style="enable-background:new 0 0 520 520;" xml:space="preserve">
<g>
	<path style="fill:#D63030;" d="M98.447,284.567v59.504c0,5.095-0.846,9.995-2.415,14.57c-6.103,17.882-23.109,30.832-42.988,30.832
		c-12.482,0-23.832-5.105-32.065-13.337c-8.233-8.233-13.337-19.583-13.337-32.065v-59.504c0-21.173,14.693-39.085,34.388-44.037
		c3.525-0.897,7.224-1.365,11.014-1.365C78.018,239.165,98.447,259.594,98.447,284.567z"/>
	<path style="fill:#D63030;" d="M504.358,284.567v59.504c0,5.095-0.846,9.995-2.415,14.57
		c-6.103,17.882-23.109,30.832-42.988,30.832c-24.973,0-45.402-20.429-45.402-45.402v-59.504c0-25.004,20.465-45.402,45.402-45.402
		C483.929,239.165,504.358,259.594,504.358,284.567z"/>
</g>
<path style="fill:#F44545;" d="M444.783,186.681l-6.195,6.185c-9.945,9.975-26.761,6.774-32.534-6.113
	c-25.768-57.568-83.601-97.795-150.645-97.795c-67.054,0-124.887,40.226-150.655,97.795c-3.658,8.161-11.748,12.451-19.716,11.942
	c-4.605-0.285-9.17-2.17-12.818-5.828l-6.195-6.185c-5.961-5.961-7.57-15.019-4.014-22.65c33.96-72.821,107.882-123.4,193.398-123.4
	c85.507,0,159.428,50.578,193.388,123.4C452.353,171.662,450.743,180.72,444.783,186.681z"/>
<g>
	<path style="fill:#D63030;" d="M427.095,198.561c-8.386,1.1-17.179-3.189-21.04-11.809
		c-25.768-57.568-83.601-97.795-150.645-97.795c-67.054,0-124.887,40.226-150.655,97.795c-3.658,8.161-11.748,12.451-19.716,11.942
		l-0.031-0.031c-5.38-5.38-6.837-13.562-3.627-20.449C112.049,112.464,178.787,66.797,256,66.797s143.951,45.667,174.62,111.417
		C433.809,185.061,432.393,193.182,427.095,198.561z"/>
	<path style="fill:#D63030;" d="M219.34,439.023c0,0.479-0.01,0.948-0.041,1.416c-0.357,7.937-3.75,15.121-9.038,20.398
		c-5.594,5.604-13.317,9.078-21.815,9.078h-32.656c-16.995,0-30.893-13.908-30.893-30.893c0-8.498,3.474-16.221,9.078-21.815
		c5.594-5.604,13.317-9.078,21.815-9.078h32.656C205.432,408.13,219.34,422.038,219.34,439.023z"/>
</g>
<g>
	<path style="fill:#F44545;" d="M98.447,284.567v59.504c0,5.095-0.846,9.995-2.415,14.57c-3.525,0.897-7.224,1.365-11.014,1.365
		c-12.482,0-23.832-5.105-32.065-13.337s-13.337-19.583-13.337-32.065V255.1c0-5.095,0.846-9.995,2.415-14.57
		c3.525-0.897,7.224-1.365,11.014-1.365C78.018,239.165,98.447,259.594,98.447,284.567z"/>
	<path style="fill:#F44545;" d="M504.358,284.567v59.504c0,5.095-0.846,9.995-2.415,14.57c-3.525,0.897-7.224,1.365-11.014,1.365
		c-24.973,0-45.413-20.429-45.413-45.402c0.693-56.954-1.687-62.112,2.415-74.074c3.536-0.897,7.224-1.365,11.025-1.365
		C483.929,239.165,504.358,259.594,504.358,284.567z"/>
	<path style="fill:#F44545;" d="M219.34,439.023c0,0.479-0.01,0.948-0.041,1.416h-31.535c-16.995,0-30.893-13.898-30.893-30.883
		c0-0.479,0.01-0.958,0.041-1.426h31.535C205.432,408.13,219.34,422.038,219.34,439.023z"/>
</g>
<path style="fill:#06638D;" d="M469.405,368.86c13.182-62.429-26.741-123.724-89.171-136.905
	c-61.726-13.033-125.999,25.706-138.444,95.748c-4.335,15.767-12.619,33.865-34.821,42.177c-6.371,2.385-6.637,11.29-0.38,13.963
	c12.301,5.255,28.562,10.763,46.623,13.162c15.259,30.217,43.591,53.488,79.288,61.026
	C394.929,471.212,456.223,431.29,469.405,368.86z"/>
<path style="fill:#1B87B3;" d="M443.917,363.476c-10.23,48.461-57.82,79.267-106.038,69.072
	c-48.357-10.209-79.271-57.69-69.061-106.038c9.924-47.012,55.072-77.549,102.013-69.815
	C420.867,264.663,454.49,313.406,443.917,363.476z"/>
<g>
	<circle style="fill:#FFEA06;" cx="353.112" cy="291.448" r="12.496"/>
	<path style="fill:#FFEA06;" d="M374.443,392.517h-3.481c-0.96,0-1.738-0.778-1.738-1.738c0,5.476,0-55.074,0-64.184
		c0-1.15-0.933-2.084-2.084-2.084h-26.918c-2.007,0-3.634,1.627-3.634,3.634v10.084c0,3.509,3.965,3.782,3.634,3.634
		c1.817,0,3.289,1.472,3.289,3.289v44.076c0,1.817-1.472,3.289-3.289,3.289h-1.93c-2.007,0-3.634,1.627-3.634,3.634v11.254
		c0,2.007,1.627,3.634,3.634,3.634h36.152c2.007,0,3.634-1.627,3.634-3.634v-11.254C378.077,394.144,376.45,392.517,374.443,392.517
		z"/>
</g>
<path d="M353.112,311.583c11.106,0,20.144-9.038,20.144-20.144c0-11.096-9.038-20.134-20.144-20.134
	c-11.096,0-20.134,9.038-20.134,20.134C332.978,302.546,342.016,311.583,353.112,311.583z M353.112,286.59
	c2.68,0,4.86,2.18,4.86,4.85c0,2.68-2.18,4.86-4.86,4.86c-2.67,0-4.85-2.18-4.85-4.86C348.262,288.77,350.442,286.59,353.112,286.59
	z"/>
<path d="M376.863,385.138v-58.546c0-5.359-4.361-9.72-9.72-9.72h-26.919c-6.215,0-11.279,5.054-11.279,11.269v10.087
	c0,4.677,2.863,8.701,6.929,10.403v36.507c-5.064,1.111-8.854,5.624-8.854,11.014v11.249c0,6.225,5.054,11.279,11.269,11.279h36.161
	c6.215,0,11.269-5.054,11.269-11.279v-11.249C385.717,390.763,381.927,386.249,376.863,385.138z M370.433,403.397h-28.132v-3.434
	c5.033-0.978,8.854-5.421,8.854-10.739v-44.068c0-4.616-2.873-8.569-6.929-10.169v-2.833h17.352
	c0.244,60.875-0.585,59.298,0.672,62.112c1.325,3.291,4.473,5.665,8.182,5.879L370.433,403.397L370.433,403.397z"/>
<path d="M376.435,249.96c-89.32-18.77-152.523,85.086-95.818,155.821c33.076,41.273,94.168,48.913,136.544,14.968
	C481.2,369.362,456.162,266.799,376.435,249.96z M339.459,425.069c-43.372-9.158-72.678-52.243-63.162-96.979
	c14.17-67.195,101.731-88.988,144.899-32.921C467.35,355.086,413.843,440.756,339.459,425.069z"/>
<path d="M450.214,233.016c-1.539-11.554-3.964-22.864-7.01-33.216c8.773-8.09,15.11-14.733,15.11-26.553
	c0-4.065-0.876-7.988-2.598-11.677C408.5,60.311,292.334,9.101,185.074,45.242c-4.004,1.345-6.154,5.675-4.809,9.68
	c1.355,3.994,5.686,6.144,9.68,4.799c99.751-33.553,208.111,14.367,251.924,108.31c4.198,9.058-3.923,15.406-4.055,15.579
	c-3.24,2.67-6.124,8.212-13.246,8.253h-0.061c-3.933,0-9.017-1.956-11.473-7.458c-0.948-2.119-1.966-4.269-3.016-6.378
	c-1.885-3.78-6.47-5.319-10.25-3.434c-3.77,1.875-5.308,6.47-3.434,10.24c0.958,1.926,1.885,3.882,2.741,5.818
	c5.268,11.758,17.923,18.32,30.211,16.068c2.761,9.985,4.819,20.154,6.144,31.087c-3.261,1.62-6.327,3.556-9.16,5.787
	c-72.366-49.849-172.288-9.916-190.413,75.959c-0.102,0.469-0.326,1.376-0.571,2.364c-0.438,1.814-0.764,3.138-0.937,4.045
	c-3.699,13.317-10.495,29.436-30.058,36.762c-12.817,4.801-13.317,22.753-0.703,28.152c14.998,6.399,30.007,10.811,44.669,13.134
	c17.301,31.698,47.216,54.012,82.664,61.501c11.704,2.471,19.446,2.406,22.997,2.649c4.137,0,7.54-3.311,7.632-7.469
	c0.092-4.218-3.25-7.723-7.469-7.815c-39.58-0.846-75.797-23.179-94.045-59.31c-3.978-7.884-12.792-0.736-50.14-16.618
	c23.662-8.96,34.363-27.217,40.247-51.414c0.285-1.182,0.55-2.272,0.662-2.822c16.897-80.045,114.684-113.583,176.892-58.526
	c65.165,57.725,39.076,164.539-45.341,185.543c-4.096,1.029-6.592,5.176-5.573,9.262c1.019,4.096,5.166,6.592,9.262,5.573
	c35.402-8.809,65.996-33.213,81.951-67.452c24.963-4.3,44.007-26.094,44.007-52.27v-59.504
	C512,252.619,482.462,227.585,450.214,233.016z M496.716,344.841c0,15.202-9.027,28.336-22.008,34.307
	c13.251-46.128-1.452-94.706-35.947-125.702c24.342-15.599,57.955,1.579,57.955,31.892V344.841z"/>
<path d="M188.447,401.257h-32.656c-17.118,0-31.668,11.228-36.67,26.705c-18.045-7.03-33.573-19.125-44.842-34.521
	c18.707-8.192,31.81-26.899,31.81-48.602v-59.504c0-21.448-12.797-39.961-31.148-48.306c1.09-10.362,3.047-20.531,5.838-30.435
	c13.185,2.608,25.768-4.371,30.954-15.946C160.508,81.678,308.474,64,381.01,160.093c2.547,3.373,7.336,4.035,10.709,1.498
	c3.362-2.547,4.035-7.336,1.498-10.709C313.497,45.323,151.124,65.222,97.784,184.404c-2.466,5.502-7.55,7.458-11.483,7.458
	c-7.234,0-9.965-5.492-13.725-8.671c-0.071-0.102-7.703-6.378-3.637-15.161c19.451-41.694,52.779-76.122,93.862-96.928
	c3.76-1.905,5.268-6.511,3.362-10.271c-1.905-3.77-6.501-5.278-10.271-3.362c-44.119,22.345-79.913,59.321-100.8,104.102
	c-4.799,10.281-2.924,22.823,5.533,31.28c5.227,5.237,6.266,6.287,6.368,6.368c-3.271,10.892-5.604,22.11-6.959,33.532
	C28.458,228.522,0,253.19,0,285.336v59.504c0,11.412,3.607,22.304,10.423,31.494c2.507,3.393,7.295,4.106,10.688,1.589
	s4.096-7.295,1.589-10.688c-4.85-6.541-7.418-14.285-7.418-22.396v-59.504c0-23.211,20.826-40.868,43.548-37.312
	c18.035,2.761,31.973,18.442,31.973,37.312v59.504c0,24.372-23.15,42.988-47.491,36.487c-4.076-1.1-8.274,1.314-9.364,5.39
	c-1.1,4.076,1.314,8.274,5.39,9.364c6.195,1.671,12.634,2.191,19.237,1.518c13.908,21.183,34.561,37.547,58.872,46.024
	c1.926,19.451,18.391,34.704,38.341,34.704h32.656c21.244,0,38.535-17.291,38.535-38.535
	C226.982,418.548,209.691,401.257,188.447,401.257z M188.447,463.044h-32.656c-15.813,0-27.113-15.61-22.039-30.639
	c3.087-9.211,11.799-15.864,22.039-15.864h32.656c12.818,0,23.251,10.434,23.251,23.251
	C211.698,452.61,201.264,463.044,188.447,463.044z"/>
<g>
</g>
<g>
</g>
<g>
</g>
<g>
</g>
<g>
</g>
<g>
</g>
<g>
</g>
<g>
</g>
<g>
</g>
<g>
</g>
<g>
</g>
<g>
</g>
<g>
</g>
<g>
</g>
<g>
</g>
</svg>
