<svg id="_x33_0" enable-background="new 0 0 64 64" height="150" viewBox="0 0 64 64" width="250" xmlns="http://www.w3.org/2000/svg"><g><g><g><path d="m33.33 6h25.67c1.66 0 3 1.34 3 3v5h-23.54c.34-.59.54-1.27.54-2 0-2.21-1.79-4-4-4-.36 0-.72.05-1.05.14-.09-.76-.31-1.48-.63-2.14z" fill="#969faa"/></g><g><path d="m62 50v9c0 1.66-1.34 3-3 3h-28c-1.66 0-3-1.34-3-3v-9z" fill="#969faa"/></g><g><path d="m38.46 14c-.69 1.2-1.98 2-3.46 2h-7v34h34v-36z" fill="#69d6f4"/></g><g><circle cx="45" cy="56" fill="#e6e9ed" r="2"/></g><g><path d="m34 31v-11h14v12h-14.03c.02-.33.03-.66.03-1z" fill="#ff826e"/></g><g><path d="m22 46.5v12.5c0 1.66-1.34 3-3 3h-2c-1.66 0-3-1.34-3-3v-12.5c1.28.33 2.62.5 4 .5s2.72-.17 4-.5z" fill="#d3a06c"/></g><g><path d="m33.2 36c-.98 2.98-2.81 5.57-5.2 7.49-1.74 1.4-3.78 2.43-6 3.01-1.28.33-2.62.5-4 .5s-2.72-.17-4-.5c-6.9-1.78-12-8.04-12-15.5 0-6.91 4.38-12.8 10.52-15.04 1.71-.62 3.55-.96 5.48-.96 1.96 0 3.85.35 5.58 1 6.09 2.26 10.42 8.12 10.42 15 0 .34-.01.67-.03 1-.09 1.39-.35 2.73-.77 4z" fill="#fcd770"/></g><g><circle cx="18" cy="31" fill="#69d6f4" r="12"/></g><g><path d="m13.13 10.01v-.01c-.09-.32-.13-.65-.13-1 0-2.21 1.79-4 4-4 1.4 0 2.63.72 3.35 1.81.92-2.8 3.55-4.81 6.65-4.81 2.79 0 5.2 1.63 6.32 4 .32.66.54 1.38.63 2.14.33-.09.69-.14 1.05-.14 2.21 0 4 1.79 4 4 0 .73-.2 1.41-.54 2-.69 1.2-1.98 2-3.46 2h-11.42c-1.73-.65-3.62-1-5.58-1-1.93 0-3.77.34-5.48.96-1.43-.23-2.52-1.47-2.52-2.96 0-1.66 1.34-3 3-3 .04 0 .09 0 .13.01z" fill="#e6e9ed"/></g></g><g><path d="m21 36h-2v-6h2v-2h-6v2h2v6h-2v2h6z"/><path d="m31 31c0-7.168-5.832-13-13-13s-13 5.832-13 13 5.832 13 13 13 13-5.832 13-13zm-24 0c0-6.065 4.935-11 11-11s11 4.935 11 11-4.935 11-11 11-11-4.935-11-11z"/><path d="m17 24h2v2h-2z"/><path d="m59 5h-25.078c-1.393-2.404-3.99-4-6.922-4-2.974 0-5.568 1.634-6.947 4.049-.863-.668-1.927-1.049-3.053-1.049-2.757 0-5 2.243-5 5 0 .047.008.093.009.139-1.725.444-3.009 1.999-3.009 3.861 0 1.136.478 2.158 1.246 2.89-5.482 2.824-9.246 8.53-9.246 15.11 0 7.634 5.059 14.107 12 16.247v11.753c0 2.206 1.794 4 4 4h2c2.206 0 4-1.794 4-4v-11.753c1.425-.439 2.761-1.074 4-1.851v13.604c0 2.206 1.794 4 4 4h28c2.206 0 4-1.794 4-4v-50c0-2.206-1.794-4-4-4zm-24 2h24c1.103 0 2 .897 2 2v4h-21.101c.066-.323.101-.658.101-1 0-2.757-2.243-5-5-5-.087 0-.168.021-.254.026-.002-.009-.005-.017-.007-.026zm-24 6c0-1.103.897-2 2-2 .568 0 1.112.243 1.491.667l1.49-1.334c-.525-.587-1.214-.986-1.963-1.185-.002-.05-.018-.098-.018-.148 0-1.654 1.346-3 3-3 .879 0 1.684.397 2.25 1.051-.157.625-.25 1.276-.25 1.949h2c0-3.309 2.691-6 6-6 2.775 0 5.135 1.908 5.797 4.534-1.65.818-2.797 2.504-2.797 4.466h2c0-1.654 1.346-3 3-3s3 1.346 3 3-1.346 3-3 3h-11.311c-1.782-.636-3.692-1-5.689-1-1.925 0-3.77.337-5.497.93-.879-.225-1.503-1.004-1.503-1.93zm-8 18c0-8.271 6.729-15 15-15s15 6.729 15 15-6.729 15-15 15-15-6.729-15-15zm18 28c0 1.103-.897 2-2 2h-2c-1.103 0-2-.897-2-2v-11.281c.976.174 1.975.281 3 .281s2.024-.107 3-.281zm12.886-22h23.114v-2h-22.495c.159-.654.286-1.319.367-2h14.128v-14h-16v4.017c-1.288-2.41-3.139-4.474-5.378-6.017h7.378c1.627 0 3.061-.793 3.974-2h22.026v34h-32v-5.062c2.169-1.847 3.859-4.228 4.886-6.938zm1.114-6v-10h12v10zm24 30h-28c-1.103 0-2-.897-2-2v-8h32v8c0 1.103-.897 2-2 2z"/><path d="m45 53c-1.654 0-3 1.346-3 3s1.346 3 3 3 3-1.346 3-3-1.346-3-3-3zm0 4c-.552 0-1-.448-1-1s.448-1 1-1 1 .448 1 1-.448 1-1 1z"/><path d="m51 19h6v2h-6z"/><path d="m51 23h2v2h-2z"/><path d="m55 23h2v2h-2z"/><path d="m51 27h6v2h-6z"/><path d="m51 31h6v2h-6z"/><path d="m33 39h24v2h-24z"/><path d="m55 43h2v2h-2z"/><path d="m51 43h2v2h-2z"/><path d="m33 43h16v2h-16z"/></g></g></svg>