<?xml version="1.0" encoding="iso-8859-1"?>
<!-- Generator: Adobe Illustrator 19.0.0, SVG Export Plug-In . SVG Version: 6.00 Build 0)  -->
<svg xmlns="http://www.w3.org/2000/svg" xmlns:xlink="http://www.w3.org/1999/xlink" version="1.1" id="Layer_1" x="0px" y="0px" viewBox="0 0 512 512" style="enable-background:new 0 0 512 512;" xml:space="preserve" width="250" height="150">
<g>
	<g>
		<path style="fill-rule:evenodd;clip-rule:evenodd;fill:#B0E7F8;" d="M54.771,321.461v-70.09c-0.907-0.085-1.813-0.114-2.749-0.114    h-5.213c-20.204,0-36.724,16.51-36.724,36.702c0,20.191,16.52,36.73,36.724,36.73h5.213c0.936,0,1.842-0.028,2.749-0.113V321.461z    "/>
	</g>
	<g>
		<path style="fill-rule:evenodd;clip-rule:evenodd;fill:#52CBF0;" d="M135.869,335.169v-97.534    c0-22.288-18.248-40.524-40.549-40.524c-22.301,0-40.549,18.236-40.549,40.524v13.736v70.09c0,1.048,0.028,2.068,0.084,3.115    c-0.027,0-0.056,0-0.084,0v10.593c0,22.287,18.248,40.525,40.549,40.525C117.621,375.694,135.869,357.456,135.869,335.169    L135.869,335.169z"/>
	</g>
	<g>
		<path style="fill-rule:evenodd;clip-rule:evenodd;fill:#52CBF0;" d="M457.229,326.105v-70.091V242.28    c0-22.289-18.249-40.526-40.578-40.526c-22.301,0-40.548,18.237-40.548,40.526v97.533c0,22.286,18.248,40.524,40.548,40.524    c22.329,0,40.578-18.238,40.578-40.524v-10.592c-0.028,0-0.085,0-0.114,0C457.173,328.202,457.229,327.154,457.229,326.105    L457.229,326.105z"/>
	</g>
	<g>
		<path style="fill-rule:evenodd;clip-rule:evenodd;fill:#B0E7F8;" d="M457.115,329.222h0.114    C457.201,329.222,457.144,329.222,457.115,329.222L457.115,329.222z M465.163,329.335c20.204,0,36.752-16.54,36.752-36.732    c0-20.191-16.548-36.702-36.752-36.702h-5.214c-0.907,0-1.842,0.028-2.72,0.113v70.091v3.116c0.878,0.084,1.813,0.113,2.72,0.113    H465.163z"/>
	</g>
	<g>
		<path style="fill-rule:evenodd;clip-rule:evenodd;fill:#ADAAAF;" d="M228.302,459.916c10.853,0,19.722-8.864,19.722-19.711    c0-10.817-8.869-19.682-19.722-19.682h-27.203c-10.825,0-19.693,8.864-19.693,19.682c0,10.847,8.868,19.711,19.693,19.711H228.302    z"/>
	</g>
	<g>
		<path style="fill-rule:evenodd;clip-rule:evenodd;fill:#FFCB7C;" d="M287.694,353.349c43.212-16.369,64.946-64.625,48.596-107.784    c-16.378-43.188-64.663-64.937-107.875-48.567c-43.185,16.368-64.947,64.625-48.568,107.784    c2.267,6.004,5.157,11.583,8.558,16.709l-10.399,44.404l40.578-17.021C239.154,359.861,264.174,362.269,287.694,353.349    L287.694,353.349z"/>
	</g>
	<g>
		<path d="M512,292.603c0-25.078-19.855-45.603-44.686-46.731v-3.592c0-24.829-17.996-45.523-41.639-49.79    c-5.245-37.008-19.943-69.71-42.78-94.986c-22.293-24.676-51.825-42.073-85.402-50.313c-5.409-1.329-10.87,1.982-12.198,7.391    c-1.328,5.409,1.982,10.869,7.391,12.196c61.175,15.013,102.69,61.838,112.647,126.184c-22.486,5.154-39.315,25.303-39.315,49.319    v97.533c0,27.905,22.714,50.608,50.633,50.608c27.935,0,50.663-22.703,50.663-50.608v-0.449    C492.145,338.236,512,317.697,512,292.603z M416.651,370.254c-16.798,0-30.463-13.655-30.463-30.44V242.28    c0-16.779,13.654-30.431,30.442-30.442c0.003,0,0.006,0,0.009,0c0.005,0,0.011,0,0.017,0    c16.811,0.002,30.488,13.657,30.488,30.442v13.734v70.091c0,0.756-0.044,1.602-0.098,2.549c-0.04,0.704-0.003,1.396,0.098,2.066    v9.093C447.144,356.599,433.465,370.254,416.651,370.254z M467.314,319.166v-53.095c13.702,1.097,24.516,12.577,24.516,26.532    C491.83,306.573,481.016,318.067,467.314,319.166z"/>
		<path d="M228.302,410.44h-27.203c-12.88,0-23.874,8.219-28.016,19.683h-49.802c-5.814,0.026-9.931-1.353-12.666-4.192    c-6.124-6.362-5.571-19.668-5.305-26.063c0.045-1.097,0.083-2.042,0.093-2.8c0-0.045,0.001-0.089,0.001-0.134v-12.166    c23.104-4.687,40.549-25.143,40.549-49.599v-97.534c0-24.037-16.858-44.199-39.374-49.332    c9.528-63.699,51.26-109.178,113.249-122.538c5.445-1.173,8.907-6.537,7.733-11.982c-1.173-5.445-6.54-8.905-11.983-7.732    c-33.993,7.326-63.908,24-86.512,48.218c-23.097,24.746-37.804,56.966-42.817,93.589c-23.604,4.286-41.563,24.968-41.563,49.778    v3.592C19.858,242.341,0,262.873,0,287.959c0,25.101,19.858,45.646,44.686,46.761v0.449c0,24.456,17.445,44.912,40.549,49.599    v12.094c-0.009,0.594-0.042,1.324-0.076,2.167c-0.383,9.191-1.178,28.315,10.925,40.888c6.628,6.885,15.735,10.374,27.04,10.374    c0.063,0,0.129,0,0.193-0.001h49.763C177.22,461.77,188.216,470,201.099,470h27.203c16.435,0,29.807-13.365,29.807-29.795    C258.108,423.793,244.737,410.44,228.302,410.44z M20.17,287.959c0-13.963,10.816-25.45,24.516-26.534v53.097    C30.986,313.436,20.17,301.938,20.17,287.959z M64.856,335.169v-9.354c0.071-0.581,0.102-1.174,0.07-1.778    c-0.047-0.879-0.07-1.722-0.07-2.576v-70.09v-13.736c0-16.783,13.663-30.438,30.458-30.441c0.006,0,0.012,0.002,0.018,0.002    c0.003,0,0.006-0.002,0.009-0.002c16.788,0.012,30.443,13.663,30.443,30.441v97.534c0,16.785-13.666,30.441-30.464,30.441    C78.522,365.61,64.856,351.954,64.856,335.169z M228.302,449.832h-27.203c-5.298,0-9.608-4.318-9.608-9.627    c0-5.292,4.31-9.598,9.608-9.598h27.203c5.313,0,9.637,4.306,9.637,9.598C237.938,445.514,233.615,449.832,228.302,449.832z"/>
		<path d="M257.006,62.168h0.199c5.57,0,10.085-4.516,10.085-10.084c0-5.569-4.515-10.084-10.085-10.084h-0.199    c-5.57,0-10.085,4.515-10.085,10.084C246.921,57.652,251.436,62.168,257.006,62.168z"/>
		<path d="M276.926,234.435c-6.036-5.238-13.601-7.872-22.725-7.872c-7.849,0-14.678,2.236-20.543,6.654    c-5.866,4.447-8.784,9.545-8.784,15.293c0,2.576,0.821,4.813,2.465,6.711c1.786,1.814,3.91,2.72,6.319,2.72    c2.663,0,4.987-1.133,6.97-3.37l1.814-2.182c3.428-4.306,7.225-6.457,11.362-6.457c3.088,0,5.667,0.879,7.678,2.634    c2.012,1.786,3.033,3.939,3.033,6.542c0,5.496-3.655,8.894-10.967,10.195c-3.796,0.766-6.347,1.784-7.622,3.087    c-1.304,1.302-1.927,3.88-1.927,7.732l-0.143,8.779c0,2.606,0.936,4.927,2.835,6.966c1.984,1.898,4.364,2.861,7.112,2.861    c2.749,0,5.101-0.963,7.027-2.917c1.956-1.926,2.919-4.276,2.919-7.023v-4.275c6.375-1.785,11.193-4.248,14.451-7.335    c5.185-5.182,7.764-11.442,7.764-18.861C285.965,246.328,282.934,239.702,276.926,234.435z"/>
		<path d="M253.804,301.297c-3.004,0-5.611,1.105-7.82,3.285c-2.183,2.21-3.288,4.844-3.288,7.958c0,3.002,1.077,5.579,3.23,7.73    c2.154,2.153,4.732,3.23,7.736,3.23c3.201,0,5.894-1.077,8.076-3.23c2.21-2.151,3.287-4.729,3.287-7.73    c0-3.2-1.105-5.805-3.344-7.872C259.527,302.43,256.893,301.297,253.804,301.297z"/>
		<path d="M310.735,197.672c-15.642-10.604-33.861-16.209-52.688-16.209c-11.341,0-22.513,2.053-33.207,6.104    c-23.406,8.872-41.958,26.32-52.24,49.132c-10.285,22.818-11.06,48.268-2.188,71.643c1.956,5.183,4.374,10.193,7.212,14.949    l-9.438,40.305c-0.864,3.689,0.414,7.553,3.308,10c1.853,1.566,4.169,2.383,6.512,2.383c1.316,0,2.642-0.258,3.9-0.785    l36.308-15.229c12.474,5.847,26.159,8.917,39.877,8.919c0.001,0,0.002,0,0.003,0c11.333,0,22.496-2.055,33.172-6.105    c48.323-18.305,72.751-72.489,54.454-120.789C338.84,223.85,326.743,208.525,310.735,197.672z M284.117,343.92    c-8.387,3.182-17.143,4.794-26.023,4.794c-0.001,0-0.001,0-0.002,0c-12.041,0-24.06-3.021-34.758-8.734    c-2.676-1.431-5.854-1.579-8.652-0.404l-22.351,9.375l5.892-25.161c0.634-2.707,0.122-5.557-1.415-7.874    c-3.046-4.591-5.579-9.535-7.533-14.712c-6.964-18.351-6.355-38.315,1.713-56.217c8.069-17.903,22.63-31.597,40.999-38.559    c8.401-3.183,17.169-4.796,26.06-4.796c30.382,0,58.037,19.093,68.812,47.506C341.216,287.034,322.043,329.553,284.117,343.92z"/>
	</g>
</g>















</svg>
