<svg id="Capa_1" enable-background="new 0 0 512 512" height="150" viewBox="0 0 512 512" width="250" xmlns="http://www.w3.org/2000/svg"><g><g clip-rule="evenodd" fill-rule="evenodd"><path d="m119.369 459.048 273.262-406.096v-21.175c0-17.462-14.286-31.777-31.777-31.777h-262.661c-17.49 0-31.776 14.287-31.776 31.777v395.495c0 17.489 14.315 31.777 31.776 31.777h21.176z" fill="#ddeafb"/><path d="m392.631 52.952v-21.175c0-17.462-14.286-31.777-31.777-31.777h-29.991c17.461 0 31.777 14.315 31.777 31.777v21.175z" fill="#cbe2ff"/><path d="m209.086 52.952h204.721c17.49 0 31.776 14.316 31.776 31.777v395.495c0 17.49-14.287 31.777-31.776 31.777h-262.662c-17.462 0-31.777-14.287-31.777-31.777v-337.555z" fill="#f8fbff"/><path d="m383.815 52.952h29.991c17.49 0 31.776 14.316 31.776 31.777v395.495c0 17.49-14.287 31.777-31.776 31.777h-29.991c17.462 0 31.777-14.287 31.777-31.777v-395.495c.001-17.461-14.315-31.777-31.777-31.777z" fill="#ecf4ff"/></g><path d="m403.913 381.604c0 4.139-3.345 7.484-7.483 7.484s-7.512-3.345-7.512-7.484c0-2.268-.936-4.337-2.41-5.811-1.502-1.502-3.571-2.437-5.839-2.437h-43.144c-2.268 0-4.337.935-5.839 2.437-1.474 1.474-2.41 3.543-2.41 5.811v13.975c0 2.239.936 4.309 2.41 5.811 1.502 1.475 3.572 2.41 5.839 2.41h43.144c6.406 0 12.217 2.608 16.44 6.832 4.195 4.195 6.803 10.035 6.803 16.413v13.975c0 6.406-2.608 12.217-6.803 16.413-4.224 4.224-10.034 6.832-16.44 6.832h-14.06v7.908c0 4.139-3.374 7.512-7.512 7.512-4.139 0-7.512-3.373-7.512-7.512v-7.908h-14.06c-6.406 0-12.217-2.608-16.441-6.832-4.195-4.195-6.803-10.006-6.803-16.413 0-4.139 3.345-7.512 7.484-7.512s7.512 3.374 7.512 7.512c0 2.268.936 4.309 2.41 5.811 1.502 1.503 3.572 2.438 5.839 2.438h43.144c2.268 0 4.337-.936 5.839-2.438 1.474-1.502 2.41-3.543 2.41-5.811v-13.975c0-2.239-.936-4.309-2.41-5.811-1.502-1.502-3.571-2.438-5.839-2.438h-43.144c-6.406 0-12.217-2.608-16.441-6.804-4.195-4.224-6.803-10.035-6.803-16.413v-13.975c0-6.406 2.608-12.217 6.803-16.441 4.224-4.196 10.035-6.803 16.441-6.803h14.06v-8.901c0-4.139 3.373-7.512 7.512-7.512 4.138 0 7.512 3.373 7.512 7.512v8.901h14.06c6.406 0 12.217 2.607 16.44 6.803 4.195 4.224 6.803 10.035 6.803 16.441z" fill="#b3e59f"/><path clip-rule="evenodd" d="m272.072 107.038h20.807c6.803 0 12.359 5.556 12.359 12.36v24.038h24.038c6.775 0 12.331 5.556 12.331 12.33v20.835c0 6.775-5.556 12.331-12.331 12.331h-24.038v24.038c0 6.775-5.556 12.331-12.359 12.331h-20.807c-6.774 0-12.331-5.556-12.331-12.331v-24.038h-24.038c-6.804 0-12.36-5.556-12.36-12.331v-20.835c0-6.774 5.556-12.33 12.36-12.33h24.038v-24.038c.001-6.804 5.557-12.36 12.331-12.36z" fill="#ff8086" fill-rule="evenodd"/><path clip-rule="evenodd" d="m209.086 52.952-89.717 89.718h51.081c21.26 0 38.637-17.376 38.637-38.637v-51.081z" fill="#ecf4ff" fill-rule="evenodd"/><path d="m168.55 264.901c-4.139 0-7.483-3.345-7.483-7.484 0-4.11 3.345-7.455 7.483-7.455h227.88c4.11 0 7.455 3.345 7.455 7.455 0 4.139-3.345 7.484-7.455 7.484zm0 214.755c-4.139 0-7.483-3.345-7.483-7.483 0-4.11 3.345-7.455 7.483-7.455h122.883c4.11 0 7.455 3.345 7.455 7.455 0 4.139-3.345 7.483-7.455 7.483zm0-30.7c-4.139 0-7.483-3.345-7.483-7.455 0-4.139 3.345-7.483 7.483-7.483h122.883c4.11 0 7.455 3.345 7.455 7.483 0 4.11-3.345 7.455-7.455 7.455zm0-30.671c-4.139 0-7.483-3.345-7.483-7.455 0-4.139 3.345-7.484 7.483-7.484h122.883c4.11 0 7.455 3.345 7.455 7.484 0 4.11-3.345 7.455-7.455 7.455zm0-30.671c-4.139 0-7.483-3.345-7.483-7.483 0-4.11 3.345-7.455 7.483-7.455h122.883c4.11 0 7.455 3.345 7.455 7.455 0 4.139-3.345 7.483-7.455 7.483zm0-30.672c-4.139 0-7.483-3.345-7.483-7.483 0-4.139 3.345-7.483 7.483-7.483h122.883c4.11 0 7.455 3.345 7.455 7.483 0 4.139-3.345 7.483-7.455 7.483zm0-30.699c-4.139 0-7.483-3.345-7.483-7.455 0-4.139 3.345-7.484 7.483-7.484h227.88c4.11 0 7.455 3.345 7.455 7.484 0 4.11-3.345 7.455-7.455 7.455zm0-30.671c-4.139 0-7.483-3.345-7.483-7.483 0-4.11 3.345-7.455 7.483-7.455h227.88c4.11 0 7.455 3.345 7.455 7.455 0 4.139-3.345 7.483-7.455 7.483z" fill="#6f6571"/></g></svg>