<svg id="Capa_1" enable-background="new 0 0 511.991 511.991" height="150" viewBox="0 0 511.991 511.991" width="250" xmlns="http://www.w3.org/2000/svg"><g><path d="m176.288 137.615h75.6v178.298h-75.6z" fill="#a3defe" transform="matrix(.707 -.707 .707 .707 -97.641 217.801)"/><path d="m210.449 169.667c-9.12 17.024-14.256 36.177-14.256 56.419 0 8.96 1.017 17.855 3.006 26.539-3.51.84-6.903 1.675-10.216 2.491l61.414 61.414 53.458-53.458z" fill="#7acefa"/><ellipse cx="107.685" cy="120.36" fill="#a3defe" rx="93.133" ry="106.785" transform="matrix(.707 -.707 .707 .707 -53.568 111.398)"/><path d="m58.909 27c-9.834 4.091-18.908 10.027-26.733 17.853-36.37 36.37-32.049 99.661 9.654 141.363 39.071 39.071 97.093 45.329 134.171 16.05-97.912-7.419-126.772-124.929-117.092-175.266z" fill="#7acefa"/><path d="m17.168 150.654c29.077-13.665 40.152-48.71 56.126-64.684 15.975-15.975 51.019-27.049 64.684-56.126-36.86-16.572-78.767-12.027-105.802 15.008-27.035 27.035-31.579 68.942-15.008 105.802z" fill="#c0ade2"/><path d="m198.202 90.067c-29.077 13.665-40.152 48.71-56.126 64.684-15.975 15.975-51.019 27.049-64.684 56.126 36.86 16.572 78.767 12.027 105.802-15.008 27.034-27.035 31.579-68.942 15.008-105.802z" fill="#c0ade2"/><path d="m17.168 150.654c23.388-10.992 35.129-35.809 47.141-53.415-7.436-26.58-8.801-52.556-5.4-70.24-9.834 4.091-18.908 10.027-26.733 17.853-27.035 27.035-31.579 68.942-15.008 105.802z" fill="#a09cdc"/><path d="m77.396 210.867c33.731 15.164 71.685 12.655 98.604-8.601-26.2-1.985-47.451-11.859-64.346-26.213-13.407 8.779-26.916 19.199-34.258 34.814z" fill="#a09cdc"/><g fill="#fff"><path d="m85.358 157.696h-14.868c-4.142 0-7.5-3.357-7.5-7.5s3.358-7.5 7.5-7.5h14.868c4.142 0 7.5 3.357 7.5 7.5s-3.358 7.5-7.5 7.5z"/><path d="m137.52 105.533c-4.142 0-7.5-3.357-7.5-7.5v-14.867c0-4.143 3.358-7.5 7.5-7.5s7.5 3.357 7.5 7.5v14.867c0 4.143-3.358 7.5-7.5 7.5z"/></g><path d="m442.827 226.087c0-53.958-48.495-97.701-108.317-97.701s-108.317 43.742-108.317 97.701c0 17.718 5.229 34.334 14.371 48.662-48.847 7.788-85.31 24.988-117.3 17.044-15.569-3.866-29.861 10.185-26.453 25.861 25.275 116.265 94.86 171.327 187.002 171.327 73.232 0 132.598-48.758 132.598-108.903 0-25.945-11.054-49.766-29.495-68.473 33.338-16.658 55.911-48.708 55.911-85.518z" fill="#f6ee86"/><g><g><ellipse cx="318.818" cy="225.781" fill="#eda1ab" rx="28.919" ry="23.03"/></g></g><path d="m424.943 195.576c10.287 0 19.682 5.837 24.24 15.058 4.592 9.29 14.057 15.17 24.419 15.17h8.791c12.204 0 22.098 9.893 22.098 22.098 0 12.204-9.893 22.098-22.098 22.098h-70.753c-10.877 0-20.886-5.941-26.097-15.489-6.961-12.756-5.532-28.453 3.617-39.743l2.816-3.475c8.057-9.942 20.171-15.717 32.967-15.717z" fill="#f2d98d"/><path d="m352.056 363.792c0 32.017-25.955 57.972-57.972 57.972-51.848 0-112.794-25.955-112.794-57.972s55.087-57.972 112.794-57.972c32.017-.001 57.972 25.955 57.972 57.972z" fill="#f2d98d"/><ellipse cx="113.716" cy="387.568" fill="#eda1ab" rx="104.239" ry="104.239" transform="matrix(.707 -.707 .707 .707 -240.746 193.925)"/><path d="m134.302 361.521v-30.252c0-3.016-2.445-5.46-5.46-5.46h-30.252c-3.016 0-5.46 2.445-5.46 5.46v30.252c0 3.016-2.445 5.46-5.46 5.46h-30.254c-3.016 0-5.46 2.445-5.46 5.46v30.252c0 3.016 2.445 5.46 5.46 5.46h30.252c3.016 0 5.46 2.445 5.46 5.46v30.252c0 3.016 2.445 5.46 5.46 5.46h30.252c3.016 0 5.46-2.445 5.46-5.46v-30.252c0-3.016 2.445-5.46 5.46-5.46h30.252c3.016 0 5.46-2.445 5.46-5.46v-30.252c0-3.016-2.445-5.46-5.46-5.46h-30.252c-3.013.001-5.458-2.444-5.458-5.46z" fill="#fff"/><path d="m314.407 200.72c0 4.143 3.357 7.5 7.5 7.5s7.5-3.357 7.5-7.5c0-3.455 2.811-6.266 6.266-6.266 3.454 0 6.265 2.811 6.265 6.266 0 4.143 3.357 7.5 7.5 7.5s7.5-3.357 7.5-7.5c0-11.726-9.539-21.266-21.265-21.266-11.725.001-21.266 9.541-21.266 21.266zm-228.778 130.549v28.213h-28.213c-7.146 0-12.96 5.814-12.96 12.96v30.252c0 7.146 5.814 12.961 12.96 12.961h28.213v28.213c0 7.146 5.814 12.96 12.96 12.96h30.252c7.146 0 12.96-5.814 12.96-12.96v-28.213h28.213c7.146 0 12.96-5.815 12.96-12.961v-30.252c0-7.146-5.814-12.96-12.96-12.96h-28.213v-28.213c0-7.147-5.814-12.961-12.96-12.961h-30.251c-7.147 0-12.961 5.815-12.961 12.961zm15 2.039h26.173v28.213c0 7.147 5.814 12.961 12.961 12.961h28.213v26.173h-28.213c-7.147 0-12.961 5.813-12.961 12.96v28.213h-26.173v-28.213c0-7.147-5.814-12.96-12.961-12.96h-28.212v-26.173h28.212c7.146 0 12.961-5.814 12.961-12.961zm381.765-115.004h-8.79c-7.564 0-14.345-4.212-17.696-10.993-2.599-5.259-6.382-9.63-10.936-12.872-14.661-42.198-58.052-73.552-110.461-73.552-45.399 0-84.774 23.854-103.75 58.485l-18.896-18.896c10.007-37.08-1.957-80.209-33.02-111.273-46.033-46.032-113.877-47.749-151.972-9.654-33.399 33.398-35.073 87.075-8.322 129.506 2.208 3.503 6.838 4.552 10.344 2.345 3.504-2.209 4.553-6.841 2.344-10.345-1.506-2.39-2.906-4.811-4.202-7.256 16.858-10.408 27.324-26.984 36.668-41.817 13.125-20.836 14.765-22.477 35.601-35.601 14.837-9.346 31.417-19.816 41.824-36.68 19.457 10.307 36.431 26.892 47.175 47.236-26.514 16.385-37.586 48.562-51.534 62.51-13.965 13.966-46.121 25.007-62.515 51.542-7.433-3.934-14.528-8.761-21.088-14.452-3.128-2.714-7.865-2.377-10.58.75-2.714 3.129-2.378 7.866.751 10.58 28.934 25.102 68.415 36.495 104.485 26.698l51.243 51.242c-13.852 3.382-28.463 7.183-41.231 9.111-73.389-31.665-155.859 22.452-155.859 102.65 0 61.613 50.126 111.739 111.739 111.739 28.011 0 53.646-10.363 73.278-27.453 27.935 16.339 60.471 24.627 96.82 24.627 28.72 0 56.317-7.155 79.81-20.691 3.589-2.067 4.822-6.653 2.754-10.242-2.067-3.59-6.655-4.821-10.242-2.754-21.219 12.226-46.227 18.688-72.321 18.688-32.15 0-60.957-6.954-85.807-20.641 11.37-13.063 19.757-28.786 24.099-46.097 21.781 9.17 47.986 14.521 71.979 14.521 36.102 0 65.472-29.371 65.472-65.473s-29.37-65.473-65.472-65.473c-33.638 0-67.482 8.649-90.545 22.865-7.105-9.588-15.705-18.005-25.454-24.9 19.793-4.447 39.92-10.343 63.66-14.129 5.323-.848 8.045-6.889 5.142-11.441-8.631-13.528-13.194-28.961-13.194-44.628 0-49.736 45.226-90.2 100.817-90.2 39.534 0 75.147 20.888 91.456 52.225-14.621-.424-29.652 5.919-39.817 18.46l-2.815 3.475c-21.493 26.523-5.17 67.454 28.307 67.454h5.693c-8.738 11.276-20.215 20.624-33.768 27.396-4.56 2.277-5.563 8.349-1.989 11.975 36.363 36.887 36.361 88.762.814 125.594-2.877 2.98-2.792 7.728.188 10.604 2.969 2.868 7.72 2.802 10.604-.189 38.441-39.827 41.332-96.646 5.661-139.294 15.215-9.223 27.735-21.528 36.713-36.086h46.837c16.32 0 29.598-13.277 29.598-29.598-.003-16.32-13.28-29.598-29.6-29.598zm-414.403-137.638c-15.308 15.308-25.286 44.457-47.101 59.228-21.543-59.876 17.619-116.245 79.458-112.009 9.137.624 18.167 2.558 26.874 5.676-14.791 21.848-43.9 31.774-59.231 47.105zm226.093 232.653c27.83 0 50.472 22.642 50.472 50.473s-22.642 50.473-50.472 50.473c-23.261 0-48.733-5.454-69.274-14.707.908-8.479.857-16.88-.158-25.353 15.038 1.319 31.785 1.545 41.505 1.545 4.143 0 7.5-3.357 7.5-7.5s-3.357-7.5-7.5-7.5c-17.071 0-32.885-.686-44.452-1.904-2.348-8.822-5.75-17.218-10.064-25.044 20.696-12.733 51.518-20.483 82.443-20.483zm-83.63 74.249c0 53.342-43.397 96.739-96.739 96.739s-96.739-43.397-96.739-96.739 43.397-96.738 96.739-96.738 96.739 43.396 96.739 96.738zm-122.3-180.417c8.834-13.044 23.091-22.049 35.903-30.12 22.825-14.376 25.912-17.46 40.298-40.298 8.065-12.804 17.064-27.05 30.094-35.885 11.485 32.07 6.327 66.83-16.56 89.717-22.948 22.95-57.767 28.056-89.735 16.586zm128.107 64.635-52.929-52.929c18.532-8.771 33.752-23.563 42.844-42.857l18.024 18.024c-8.891 25.179-6.787 52.042 4.633 75.167-4.291.818-8.478 1.694-12.572 2.595zm266.133-9.286c-2.364 0-48.582 0-70.754 0-20.633 0-30.296-26.174-16.652-43.011l2.814-3.474c6.665-8.224 16.558-12.939 27.142-12.939 3.445 0 6.72.892 9.581 2.499.271.183.552.348.843.494 2.982 1.879 5.453 4.572 7.092 7.889 5.898 11.934 17.832 19.347 31.143 19.347h8.79c8.049 0 14.598 6.549 14.598 14.598 0 8.048-6.548 14.597-14.597 14.597z"/></g></svg>