<svg id="Capa_1" enable-background="new 0 0 512 512" height="150" viewBox="0 0 512 512" width="250" xmlns="http://www.w3.org/2000/svg"><g><g><path d="m266.572 241.63h52.457v102.34h-52.457z" fill="#c5d3dd" transform="matrix(.707 -.707 .707 .707 -121.282 292.8)"/></g><g><path d="m289.443 232.157h25.662v102.34h-25.662z" fill="#b6c4cf" transform="matrix(.707 -.707 .707 .707 -111.809 296.724)"/></g><g><path d="m492.12 492.12c-16.503 16.503-43.259 16.503-59.762 0l-125.527-125.527c-16.503-16.503-16.503-43.259 0-59.762 16.503-16.503 43.259-16.503 59.762 0l125.527 125.527c16.503 16.503 16.503 43.259 0 59.762z" fill="#8d9ca8"/></g><g><path d="m492.122 492.122c-2.298 2.288-4.787 4.265-7.416 5.921 10.256-16.327 8.289-38.132-5.921-52.352l-125.526-125.526c-8.259-8.249-19.066-12.373-29.884-12.373-7.817 0-15.624 2.147-22.468 6.452 1.656-2.639 3.633-5.128 5.921-7.416 8.249-8.249 19.066-12.373 29.884-12.373s21.635 4.124 29.884 12.373l125.526 125.526c16.497 16.508 16.497 43.261 0 59.768z" fill="#7a8c98"/></g><g><circle cx="157.179" cy="157.179" fill="#8d9ca8" r="149.652"/></g><g><path d="m263.002 263.002c-49.918 49.908-126.317 57.192-183.956 21.852 55.16 25.071 122.417 14.928 167.793-30.439 58.437-58.447 58.437-153.196 0-211.643-8.529-8.529-17.816-15.803-27.667-21.842 15.881 7.216 30.76 17.359 43.83 30.429 58.436 58.446 58.436 153.196 0 211.643z" fill="#7a8c98"/></g><g><circle cx="157.179" cy="157.179" fill="#faf7f7" r="113.297"/></g><g><path d="m237.289 237.289c-38.511 38.511-97.852 43.509-141.76 14.967 41.059 16.97 90.072 8.772 123.448-24.594 44.248-44.248 44.248-115.989 0-160.227-5.738-5.738-11.932-10.727-18.468-14.967 13.381 5.524 25.907 13.722 36.78 24.594 44.248 44.248 44.248 115.989 0 160.227z" fill="#ede1dd"/></g><g><g><path d="m140.52 212.188c-5.033 0-9.878-1.953-13.508-5.461l-32.37-31.286c-7.718-7.461-7.928-19.766-.468-27.485 7.46-7.717 19.763-7.931 27.486-.468l18.071 17.465 52.195-56.532c7.281-7.888 19.579-8.378 27.467-1.096 7.886 7.282 8.377 19.58 1.095 27.467l-65.685 71.144c-3.548 3.844-8.498 6.095-13.728 6.244-.185.006-.37.008-.555.008z" fill="#a6e7f0"/></g></g><g><g><path d="m220.484 134.789-65.682 71.147c-3.55 3.841-8.5 6.097-13.732 6.243-.185.01-.37.01-.554.01-5.028 0-9.871-1.955-13.508-5.465l-7.255-7.012c1.877.564 3.832.866 5.825.866.195 0 .389 0 .574-.01 5.397-.156 10.493-2.47 14.16-6.438l67.714-73.345c4.493-4.872 6.117-11.359 4.95-17.398 2.315.846 4.493 2.159 6.418 3.939 7.888 7.284 8.374 19.576 1.09 27.463z" fill="#6bd9e7"/></g></g><g><path d="m497.442 427.036-125.527-125.526c-9.403-9.403-21.905-14.582-35.202-14.582-.669 0-1.335.023-2 .049l-45.083-45.083c16.096-25.056 24.729-54.22 24.729-84.714 0-41.984-16.35-81.455-46.037-111.142-29.689-29.688-69.159-46.038-111.143-46.038s-81.455 16.35-111.142 46.037-46.037 69.158-46.037 111.142 16.35 81.455 46.037 111.142 69.158 46.037 111.142 46.037c30.494 0 59.658-8.633 84.714-24.729l45.083 45.083c-.026.665-.049 1.331-.049 2 0 13.298 5.179 25.8 14.582 35.202l28.361 28.362c2.938 2.94 7.704 2.939 10.643 0s2.939-7.705 0-10.643l-28.361-28.362c-6.56-6.56-10.173-15.282-10.173-24.559s3.613-18 10.173-24.559c6.56-6.56 15.282-10.173 24.559-10.173s17.999 3.613 24.559 10.173l125.529 125.527c13.542 13.542 13.542 35.577 0 49.119s-35.576 13.543-49.118 0l-72.532-72.533c-2.939-2.939-7.705-2.939-10.643 0-2.939 2.939-2.939 7.704 0 10.643l72.532 72.533c9.704 9.706 22.452 14.558 35.201 14.558s25.498-4.853 35.203-14.558c19.411-19.411 19.411-50.995 0-70.406zm-340.263-127.731c-37.963 0-73.654-14.784-100.498-41.628s-41.628-62.535-41.628-100.499 14.783-73.653 41.627-100.498c26.844-26.844 62.535-41.628 100.498-41.628s73.654 14.784 100.498 41.628 41.628 62.535 41.628 100.498-14.784 73.654-41.628 100.499c-26.843 26.844-62.534 41.628-100.497 41.628zm144.331 2.205c-4.608 4.608-8.194 9.963-10.661 15.788l-36.531-36.531c4.87-3.844 9.549-7.991 14.003-12.446s8.602-9.133 12.446-14.003l36.531 36.531c-5.826 2.467-11.181 6.053-15.788 10.661z"/><path d="m254.083 216.411c-3.393-2.402-8.089-1.599-10.492 1.793-3.45 4.873-7.36 9.504-11.621 13.766-41.24 41.24-108.343 41.24-149.583 0s-41.24-108.343 0-149.583 108.343-41.24 149.583 0c27.956 27.957 37.968 68.78 26.127 106.538-1.244 3.966.963 8.189 4.929 9.433 3.964 1.243 8.19-.963 9.433-4.929 13.523-43.125 2.087-89.752-29.846-121.685-22.82-22.821-53.162-35.389-85.435-35.389s-62.614 12.568-85.435 35.389c-22.82 22.82-35.388 53.162-35.388 85.435s12.568 62.615 35.388 85.435 53.162 35.389 85.435 35.389 62.614-12.568 85.435-35.389c4.861-4.861 9.323-10.147 13.263-15.711 2.402-3.393 1.599-8.09-1.793-10.492z"/><path d="m224.498 101.795c-5.292-4.885-12.164-7.418-19.366-7.131-7.197.287-13.85 3.36-18.735 8.651l-46.972 50.875-12.534-12.114c-10.691-10.331-27.795-10.04-38.128.65-10.331 10.691-10.04 27.793.65 38.127l32.371 31.285c5.055 4.886 11.709 7.576 18.738 7.576.258 0 .516-.003.768-.011 7.211-.205 14.152-3.363 19.043-8.662l65.685-71.144c4.886-5.291 7.419-12.169 7.132-19.366-.289-7.195-3.36-13.849-8.652-18.736zm-9.54 27.892-65.686 71.145c-2.16 2.341-5.227 3.735-8.417 3.826l-.335.005c-3.105 0-6.044-1.189-8.277-3.347l-32.37-31.286c-4.722-4.565-4.851-12.121-.288-16.842 2.334-2.415 5.449-3.628 8.568-3.628 2.982 0 5.968 1.11 8.277 3.341l18.07 17.465c1.457 1.408 3.411 2.166 5.445 2.111 2.025-.058 3.941-.93 5.315-2.418l52.196-56.532c2.157-2.337 5.096-3.694 8.274-3.822 10.409-.418 16.372 12.246 9.228 19.982z"/></g></g></svg>