<svg height="150" viewBox="0 0 128 128" width="250" xmlns="http://www.w3.org/2000/svg"><g><g><path d="m48.962 57.943-14.348 3.473-5.387-16.222 17.107-4.14z" fill="#62e0da"/><path d="m13.167 80.333c0-12.762 13.278-28.674 29.611-25.052s20.889-2.885 30.555-3.06 12.881 11.785 24.334 9.579c9.5-1.834 18.686 7.333 18.583 18.537z" fill="#eaeaf0"/><path d="m10.667 82.833h106.667v20.974h-106.667z" fill="#537980"/><path d="m6.5 76.833h115v9h-115z" fill="#385b60"/><g fill="#fdd82e"><path d="m82.5 52.96-3.01 7.99a7.793 7.793 0 0 1 -1.69 2.68 30.053 30.053 0 0 0 -4.4-1.39c-2.31-.47-4.63.04-7.55.62a7.793 7.793 0 0 1 -1.05-7.43l3.01-8 7.34 2.76z"/><path d="m83.662 34.661a6.094 6.094 0 0 1 -2.146-.392l-.656-.247a6.086 6.086 0 0 1 -3.555-7.841l.979-2.6a1.752 1.752 0 0 1 2.254-1.022l8.777 3.3a1.75 1.75 0 0 1 1.022 2.254l-.98 2.6a6.1 6.1 0 0 1 -5.695 3.948zm-.914-3.668a2.589 2.589 0 0 0 3.334-1.512l.363-.966-5.5-2.069-.363.966a2.589 2.589 0 0 0 1.513 3.334z"/></g></g><g fill="#0b2e41"><path d="m26.041 96.058a1.75 1.75 0 1 0 0 3.5h8a1.75 1.75 0 0 0 0-3.5z"/><path d="m121.5 75.083h-4.119a20.736 20.736 0 0 0 -8.152-12.3 15.569 15.569 0 0 0 -11.891-2.706c-5.455 1.054-8.656-1.479-12.359-4.414-.419-.331-.842-.647-1.263-.972l.422-1.119a1.751 1.751 0 0 0 -1.021-2.255l-5.717-2.146 5.48-14.58a6.193 6.193 0 0 0 .779.07 6.1 6.1 0 0 0 5.695-3.948l.98-2.6a1.75 1.75 0 0 0 -1.022-2.254l-8.777-3.3a1.752 1.752 0 0 0 -2.254 1.022l-.979 2.6a6.047 6.047 0 0 0 2.3 7.179l-5.48 14.579-5.7-2.146a1.751 1.751 0 0 0 -2.254 1.022l-2.048 5.442-.641.2a33.856 33.856 0 0 1 -13.279 2.116l-1.9-12.2.234-.057a1.75 1.75 0 1 0 -.824-3.4l-.828.2a9.808 9.808 0 0 0 -9.212-6.386 9.64 9.64 0 0 0 -2.339.279 9.854 9.854 0 0 0 -7.48 10.718l-.83.2a1.75 1.75 0 1 0 .825 3.4l.231-.056 2.336 7.043a25.874 25.874 0 0 0 -5.876 2.952 30.6 30.6 0 0 0 -12.472 17.817h-5.565a1.75 1.75 0 0 0 -1.75 1.75v9a1.749 1.749 0 0 0 1.75 1.75h2.417v16.225a1.75 1.75 0 0 0 1.75 1.75h106.666a1.75 1.75 0 0 0 1.75-1.75v-3.933a1.75 1.75 0 0 0 -3.5 0v2.183h-103.166v-14.475h103.166v4.042a1.75 1.75 0 0 0 3.5 0v-4.042h2.417a1.749 1.749 0 0 0 1.75-1.75v-9a1.75 1.75 0 0 0 -1.75-1.75zm-40.92-47.671.363-.966 5.5 2.069-.363.966a2.589 2.589 0 0 1 -3.334 1.512l-.288-.109c-.016-.006-.029-.016-.045-.022s-.031-.007-.047-.013l-.275-.1a2.589 2.589 0 0 1 -1.513-3.334zm-11.749 22.272 4.066 1.53-.865 2.3a1.75 1.75 0 1 0 3.276 1.232l.864-2.3 4.073 1.533-2.391 6.35a6.254 6.254 0 0 1 -.635 1.222 26.121 26.121 0 0 0 -3.469-1.027 17.637 17.637 0 0 0 -7.05.376 6.012 6.012 0 0 1 -.265-4.857zm-36.616-10.404a6.321 6.321 0 0 1 3.944-2.871 6.252 6.252 0 0 1 1.511-.179 6.318 6.318 0 0 1 5.771 3.718l-12.155 2.941a6.325 6.325 0 0 1 .929-3.609zm-.724 7.167 13.4-3.244 1.712 11.008c-1.085-.16-2.23-.37-3.447-.64a23.155 23.155 0 0 0 -9.359-.164zm88.259 37.636h-111.5v-5.5h15.937a1.75 1.75 0 0 0 0-3.5h-8.505a27.07 27.07 0 0 1 10.8-14.907 22.051 22.051 0 0 1 6.635-3.029c.024-.006.048-.008.071-.016h.007a19.543 19.543 0 0 1 9.2-.14 48.7 48.7 0 0 0 5.944.956 1.774 1.774 0 0 0 .343.036h.053a34.62 34.62 0 0 0 13.995-1.614 9.46 9.46 0 0 0 .442 5.215c-1.061.182-2.2.348-3.422.461a1.75 1.75 0 0 0 .322 3.485 57.119 57.119 0 0 0 6.141-.957l.062-.012.279-.055c2.586-.516 4.627-.923 6.489-.545a28.3 28.3 0 0 1 4.092 1.3l.027.01c.339.129.679.258 1 .384a17.276 17.276 0 0 0 5.375 1.535c.071 0 .141 0 .211-.005a1.75 1.75 0 1 0 -.184-3.495 11.509 11.509 0 0 1 -3.029-.875 9.8 9.8 0 0 0 .582-1.238l1.3-3.447c.125.1.253.192.379.292 3.824 3.03 8.155 6.464 15.2 5.106a12.112 12.112 0 0 1 9.228 2.143 17.119 17.119 0 0 1 6.546 9.422h-73.083a1.75 1.75 0 0 0 0 3.5h79.063z"/><path d="m34.25 75.083h-3.584a1.75 1.75 0 1 0 0 3.5h3.584a1.75 1.75 0 0 0 0-3.5z"/></g></g></svg>