<svg id="Capa_1" enable-background="new 0 0 510.013 510.013" height="512" viewBox="0 0 510.013 510.013" width="512" xmlns="http://www.w3.org/2000/svg"><g><path d="m202.798 307.218-10.27 24.412-24.413 10.271-12.374 1.768 1.768-12.374c2.828-2.829 31.644-31.645 35.122-35.123l12.04-1.443z" fill="#2e4772"/><path d="m215.287 305.345-1.443 12.04c-5.296 5.296-24.818 24.818-35.122 35.123l-12.374 1.767 1.768-12.373c1.102-1.102 31.129-31.129 34.683-34.684z" fill="#142d58"/><path d="m113.796 330.008c-13.932 13.932-96.771 96.77-100.074 100.073-18.377 18.378-18.21 47.969.016 66.198l84.26-70.118 48.905-63.047-9.482-23.624z" fill="#ff884d"/><path d="m146.903 363.115c-17.331 17.331-131.06 131.06-133.165 133.165 18.23 18.23 47.821 18.387 66.197.015 4.05-4.05 96.106-96.105 100.074-100.074l-9.482-23.625z" fill="#ff4d4d"/><path d="m146.903 363.115c-2.025-2.025 2.173 2.173-33.107-33.106l21.213-21.213 33.106 33.106-5.089 16.124z" fill="#ffdf40"/><path d="m180.009 396.221c-13.279-13.279-17.162-17.162-33.106-33.107 7.419-7.419 13.794-13.794 21.213-21.213 13.279 13.279 17.19 17.19 33.106 33.107-7.419 7.419-13.794 13.794-21.213 21.213z" fill="#ffbe40"/><path d="m202.789 52.789c-70.271 70.273-70.464 183.967 0 254.439l134.292-120.149 120.149-134.29c-70.111-70.105-183.777-70.664-254.441 0z" fill="#475f8a"/><path d="m457.23 52.789c-7.178 7.177-247.263 247.262-254.44 254.439 70.567 70.563 184.254 70.184 254.439-.001 70.334-70.334 70.413-184.027.001-254.438z" fill="#2e4772"/><path d="m234.595 84.593c-52.813 52.814-52.737 138.094-.001 190.829l103.37-87.46 87.46-103.369c-52.821-52.821-138.092-52.739-190.829 0z" fill="#edf5ff"/><path d="m425.424 84.593c-5.383 5.383-185.446 185.445-190.83 190.829 52.911 52.914 138.184 52.647 190.829.001 52.759-52.758 52.804-138.027.001-190.83z" fill="#d6e8fd"/><path d="m318.116 191.9-9.698-9.697-9.696-9.697c-7.419 7.419-13.794 13.794-21.213 21.213l9.697 9.697 9.698 9.698 18.209-4.069z" fill="#54e360"/><path d="m318.115 234.327c8.326-8.326 62.316-62.317 70.606-70.607l-10.606-10.606-10.605-10.605c-4.824 4.824-69.185 69.186-70.606 70.606.163.163 21.088 21.088 21.211 21.212z" fill="#00cc71"/></g></svg>